<svg width="217" height="92" viewBox="0 0 217 92" fill="none" xmlns="http://www.w3.org/2000/svg">
    <path d="M1.22904 82.2057C0.760393 82.6274 0.722402 83.3493 1.14418 83.8179L8.01748 91.4549C8.43926 91.9236 9.16109 91.9616 9.62973 91.5398C10.0984 91.118 10.1364 90.3962 9.71459 89.9275L3.60499 83.1391L10.3934 77.0295C10.8621 76.6077 10.9001 75.8859 10.4783 75.4172C10.0565 74.9486 9.33468 74.9106 8.86603 75.3324L1.22904 82.2057ZM216.513 0.862708C211.338 1.33317 204.995 1.071 197.623 1.16135C190.312 1.25094 182.136 1.69294 173.558 3.59646C156.353 7.41449 137.646 17.0883 120.923 41.3075L122.802 42.6048C139.186 18.8761 157.39 9.52307 174.053 5.82547C182.409 3.97118 190.406 3.53319 197.651 3.4444C204.834 3.35637 211.43 3.61744 216.72 3.13656L216.513 0.862708ZM120.923 41.3075C88.2355 88.6477 31.126 83.4444 2.05274 81.9142L1.93273 84.1943C30.7013 85.7084 89.2753 91.1601 122.802 42.6048L120.923 41.3075Z" fill="url(#paint0_linear_206_2)"/>
    <defs>
        <linearGradient id="paint0_linear_206_2" x1="216.537" y1="43.5839" x2="6.58705" y2="57.9712" gradientUnits="userSpaceOnUse">
            <stop stop-color="#FF4F4F" stop-opacity="0"/>
            <stop offset="1" stop-color="#FF4F4F"/>
        </linearGradient>
    </defs>
</svg>
