<svg width="16" height="16" viewBox="0 0 16 16" fill="none" xmlns="http://www.w3.org/2000/svg">
    <path fill-rule="evenodd" clip-rule="evenodd" d="M8 16C10.1217 16 12.1566 15.1571 13.6569 13.6569C15.1571 12.1566 16 10.1217 16 8C16 5.87827 15.1571 3.84344 13.6569 2.34315C12.1566 0.842855 10.1217 0 8 0C5.87827 0 3.84344 0.842855 2.34315 2.34315C0.842855 3.84344 0 5.87827 0 8C0 10.1217 0.842855 12.1566 2.34315 13.6569C3.84344 15.1571 5.87827 16 8 16ZM8.707 5.707C8.88916 5.5184 8.98995 5.2658 8.98767 5.0036C8.9854 4.7414 8.88023 4.49059 8.69482 4.30518C8.50941 4.11977 8.2586 4.0146 7.9964 4.01233C7.7342 4.01005 7.4816 4.11084 7.293 4.293L4.293 7.293C4.10553 7.48053 4.00021 7.73484 4.00021 8C4.00021 8.26516 4.10553 8.51947 4.293 8.707L7.293 11.707C7.4816 11.8892 7.7342 11.99 7.9964 11.9877C8.2586 11.9854 8.50941 11.8802 8.69482 11.6948C8.88023 11.5094 8.9854 11.2586 8.98767 10.9964C8.98995 10.7342 8.88916 10.4816 8.707 10.293L7.414 9H11C11.2652 9 11.5196 8.89464 11.7071 8.70711C11.8946 8.51957 12 8.26522 12 8C12 7.73478 11.8946 7.48043 11.7071 7.29289C11.5196 7.10536 11.2652 7 11 7H7.414L8.707 5.707Z" fill="white"/>
</svg>
