<svg width="200" height="200" viewBox="0 0 200 200" fill="none" xmlns="http://www.w3.org/2000/svg">
<circle cx="100" cy="100" r="100" fill="#344750"/>
<path d="M100.902 99.1997C114.498 99.1997 125.522 86.2984 125.522 70.3842C125.522 48.3156 114.499 41.5686 100.902 41.5686C87.3046 41.5686 76.2827 48.3149 76.2827 70.3842C76.2827 86.2978 87.3052 99.1997 100.902 99.1997Z" fill="#182328"/>
<path d="M155.267 141.613L142.846 113.633C142.277 112.352 141.279 111.291 140.037 110.644L120.761 100.61C120.336 100.389 119.821 100.432 119.439 100.721C113.987 104.845 107.576 107.024 100.902 107.024C94.2262 107.024 87.8162 104.845 82.3643 100.721C81.9813 100.431 81.4666 100.389 81.0415 100.61L61.7661 110.644C60.523 111.29 59.5265 112.352 58.9575 113.632L46.5372 141.612C45.6809 143.541 45.8563 145.748 47.0067 147.518C48.1563 149.287 50.1025 150.342 52.2127 150.342H149.591C151.701 150.342 153.648 149.286 154.797 147.518C155.947 145.748 156.123 143.54 155.267 141.612L155.267 141.613Z" fill="#182328"/>
<path d="M104.484 130.022C103.923 132.522 102.644 134.783 100.781 136.562C101.242 136.975 101.739 137.351 102.256 137.692C102.268 137.68 102.28 137.672 102.288 137.66C104.191 135.756 105.542 133.384 106.187 130.799C106.372 130.058 106.504 129.284 106.572 128.511C106.612 128.066 106.632 127.617 106.632 127.184C106.632 122.472 104.36 117.999 100.556 115.218L100.536 115.202L100.468 115.138L100.38 115.218C96.5722 117.999 94.3037 122.472 94.3037 127.184C94.3037 127.521 94.3157 127.866 94.3398 128.214C94.925 127.958 95.5302 127.737 96.1434 127.553C96.1394 127.421 96.1354 127.301 96.1354 127.184C96.1354 123.574 97.6624 120.095 100.324 117.639L100.468 117.506L100.612 117.639C103.274 120.095 104.797 123.574 104.797 127.184C104.797 127.349 104.793 127.525 104.785 127.721C104.753 128.495 104.652 129.268 104.484 130.022Z" fill="#344750"/>
<path d="M90.5646 131.148C87.8391 133.592 86.1237 136.947 85.7309 140.585L85.7189 140.686L85.8231 140.738C87.7229 141.575 89.7349 142 91.811 142C94.797 142 97.6507 141.126 100.096 139.475C99.5826 139.099 99.0896 138.682 98.6207 138.237C96.5766 139.499 94.2239 140.169 91.811 140.169C90.5365 140.169 89.278 139.984 88.0636 139.616L87.8752 139.559L87.7509 139.523L87.775 139.415L87.8191 139.223C88.6728 135.536 91.0856 132.414 94.4363 130.663C95.1257 130.302 95.8511 130.002 96.5926 129.773C97.8431 129.384 99.1457 129.188 100.464 129.188C101.707 129.188 102.933 129.36 104.112 129.705C104.236 129.104 104.312 128.487 104.348 127.87C103.082 127.525 101.779 127.353 100.464 127.353C99.0936 127.353 97.7309 127.541 96.4162 127.914C95.6708 128.126 94.9373 128.399 94.2359 128.723C92.8972 129.344 91.6628 130.158 90.5646 131.148Z" fill="#344750"/>
<path d="M109.119 142C111.195 142 113.211 141.575 115.111 140.734L115.119 140.73L115.211 140.694L115.199 140.585C114.806 136.943 113.091 133.592 110.365 131.148C109.339 130.226 108.197 129.457 106.963 128.855C106.894 129.497 106.786 130.13 106.638 130.743C109.948 132.53 112.313 135.648 113.135 139.327L113.179 139.519L112.991 139.579C111.74 139.972 110.437 140.169 109.119 140.169C106.65 140.169 104.245 139.467 102.169 138.145C101.512 137.728 100.89 137.247 100.321 136.722C98.4215 134.971 97.1068 132.735 96.5016 130.25C95.9124 130.446 95.3393 130.683 94.7862 130.963C95.4475 133.484 96.7782 135.796 98.6419 137.66C98.678 137.696 98.718 137.732 98.7541 137.772L98.7942 137.812C99.3553 138.357 99.9605 138.858 100.586 139.303C103.087 141.066 106.037 142 109.119 142Z" fill="#344750"/>
</svg>
