<svg width="312" height="291" viewBox="0 0 312 291" fill="none" xmlns="http://www.w3.org/2000/svg">
<ellipse opacity="0.4" cx="176.5" cy="286" rx="135.5" ry="5" fill="url(#paint0_radial_1505_4415)"/>
<circle cx="172.801" cy="111.5" r="111.5" fill="#E7EAEE"/>
<circle cx="164.93" cy="103.629" r="103.629" fill="white"/>
<path d="M129.076 145.169C110.886 145.169 107.796 154.205 107.65 158.724H151.813C152.396 154.205 147.266 145.169 129.076 145.169Z" fill="#11161D"/>
<rect x="28.0703" y="42.851" width="152.165" height="80.4549" rx="17.4902" fill="#2A4BC0"/>
<rect x="23.6992" y="37.6039" width="152.165" height="80.4549" rx="17.4902" fill="#2E5CFF"/>
<g clip-path="url(#clip0_1505_4415)">
<path d="M77.4799 68.649L59.1152 87.0138" stroke="white" stroke-width="3.49804" stroke-linecap="round" stroke-linejoin="round"/>
<path d="M59.1152 68.649L77.4799 87.0138" stroke="white" stroke-width="3.49804" stroke-linecap="round" stroke-linejoin="round"/>
</g>
<g clip-path="url(#clip1_1505_4415)">
<path d="M135.197 68.649L116.832 87.0138" stroke="white" stroke-width="3.49804" stroke-linecap="round" stroke-linejoin="round"/>
<path d="M116.832 68.649L135.197 87.0138" stroke="white" stroke-width="3.49804" stroke-linecap="round" stroke-linejoin="round"/>
</g>
<defs>
<radialGradient id="paint0_radial_1505_4415" cx="0" cy="0" r="1" gradientUnits="userSpaceOnUse" gradientTransform="translate(176.5 286) rotate(90) scale(5 135.5)">
<stop/>
<stop offset="1" stop-opacity="0"/>
</radialGradient>
<clipPath id="clip0_1505_4415">
<rect width="36.7294" height="36.7294" fill="white" transform="translate(49.9336 59.4667)"/>
</clipPath>
<clipPath id="clip1_1505_4415">
<rect width="36.7294" height="36.7294" fill="white" transform="translate(107.65 59.4667)"/>
</clipPath>
</defs>
</svg>
