<svg width="109" height="51" viewBox="0 0 109 51" fill="none" xmlns="http://www.w3.org/2000/svg">
    <g clip-path="url(#clip0_77_1808)">
        <path d="M6.02677 31.1605C6.13942 31.2731 6.28774 31.3294 6.43606 31.3294C6.58439 31.3294 6.73271 31.2731 6.84536 31.1605C7.07066 30.9352 7.07066 30.5672 6.84536 30.342L1.63718 25.1345L8.84489 17.9277C10.1404 22.8123 12.568 28.6018 17.119 33.1522C19.0097 35.0426 21.2608 36.6965 23.8236 38.0837C21.4654 39.1519 19.1054 39.9066 16.9482 40.4434L9.81368 33.3099C10.1479 31.9658 10.5666 30.5428 11.0941 29.0917C11.203 28.7914 11.0491 28.4591 10.7487 28.3502C10.4483 28.2413 10.116 28.3953 10.0071 28.6956C7.42926 35.7766 7.36355 42.0598 7.36167 42.3245L7.35791 42.9102L7.9437 42.9064C8.24785 42.9045 11.8733 42.8576 16.6177 41.7519L25.1359 50.269L30.9318 44.4739C31.1571 44.2486 31.1571 43.8807 30.9318 43.6554C30.7065 43.4301 30.3385 43.4301 30.1132 43.6554L25.1359 48.632L17.9301 41.4252C22.8154 40.1299 28.6056 37.7027 33.1566 33.1522C34.4408 31.8682 35.6274 30.4058 36.6807 28.8064C36.8572 28.5398 36.7821 28.1794 36.5155 28.0048C36.2489 27.8283 35.8884 27.9034 35.7138 28.17C34.7037 29.7037 33.5678 31.1041 32.338 32.3337C30.1676 34.5038 27.6724 36.1708 25.1266 37.4549C22.3497 36.0451 19.9296 34.3255 17.9357 32.3337C15.7654 30.1636 14.0981 27.6688 12.8139 25.1232C14.2239 22.3449 15.9437 19.9251 17.9357 17.9334C22.4774 13.3923 28.4347 11.042 33.3256 9.82364L40.4563 16.9534C39.9212 19.1066 39.1665 21.4645 38.1001 23.8148C36.8215 21.4607 35.205 19.1611 33.1566 17.113C31.9212 15.8778 30.5225 14.7345 28.998 13.7133C28.7314 13.535 28.3728 13.6063 28.1944 13.8729C28.016 14.1394 28.0874 14.498 28.354 14.6763C29.8165 15.6544 31.1571 16.7507 32.338 17.9315C36.8797 22.4725 39.2303 28.4291 40.4488 33.3193L33.3162 40.451C31.97 40.1168 30.5431 39.6963 29.0918 39.1688C28.7914 39.0599 28.4591 39.2138 28.3502 39.5142C28.2413 39.8146 28.3953 40.1468 28.6957 40.2557C35.7795 42.8351 42.0672 42.9008 42.332 42.9026L42.9177 42.9064L42.914 42.3207C42.9121 42.0166 42.8652 38.3916 41.7593 33.6478L50.2775 25.1307L44.4254 19.2793C44.2001 19.0541 43.8321 19.0541 43.6068 19.2793C43.3815 19.5046 43.3815 19.8726 43.6068 20.0978L48.6403 25.1307L41.4326 32.3375C40.8262 30.0529 39.9738 27.573 38.7722 25.112C42.8145 16.7826 42.9121 8.30119 42.9159 7.94076L42.9196 7.35506L42.3338 7.35882C42.0297 7.36069 38.4023 7.40762 33.6598 8.51332L25.1378 0L19.2969 5.84012C19.0716 6.06539 19.0716 6.43333 19.2969 6.6586C19.5222 6.88387 19.8902 6.88387 20.1155 6.6586L25.1378 1.63884L32.3455 8.8456C30.0606 9.45195 27.5804 10.3042 25.119 11.5057C16.7886 7.46206 8.30605 7.36445 7.94557 7.36257L7.35979 7.35882L7.36355 7.94452C7.36543 8.24863 7.41236 11.8736 8.51821 16.6174L0 25.1345L6.02677 31.1605ZM8.54074 41.7275C8.59519 40.5861 8.79232 37.9298 9.50577 34.639L15.6208 40.7532C12.3295 41.4684 9.6785 41.673 8.54074 41.7275ZM41.733 41.7294C40.5915 41.6749 37.933 41.4759 34.6436 40.7645L40.7567 34.6521C41.4739 37.9411 41.6786 40.5899 41.733 41.7294ZM41.7349 8.54148C41.6805 9.68097 41.4814 12.3354 40.768 15.6281L34.6567 9.51765C37.9461 8.80054 40.5953 8.5978 41.7349 8.54148ZM23.8217 12.174C21.4673 13.4524 19.1674 15.0687 17.119 17.1168C15.2284 19.0071 13.5743 21.258 12.1887 23.8204C11.1204 21.4626 10.3657 19.1029 9.8287 16.9459L16.9594 9.81613C19.1129 10.3511 21.4692 11.1058 23.8217 12.174ZM15.6302 9.50827L9.51704 15.6187C8.80171 12.3298 8.59706 9.67909 8.54074 8.54148C9.68226 8.59592 12.337 8.79491 15.6302 9.50827Z" fill="url(#paint0_radial_77_1808)"/>
        <path d="M27.0208 23.6552C26.7579 24.8266 26.159 25.8854 25.286 26.7189C25.5019 26.9122 25.7347 27.0887 25.9769 27.2483C25.9825 27.2426 25.9882 27.2389 25.9919 27.2332C26.8837 26.3416 27.5165 25.2302 27.8187 24.0194C27.9051 23.6721 27.9671 23.3098 27.999 22.9475C28.0177 22.7391 28.0271 22.5289 28.0271 22.3261C28.0271 20.1185 26.9626 18.0235 25.1808 16.7206L25.1715 16.7131L25.1395 16.6831L25.0982 16.7206C23.3146 18.0235 22.252 20.1185 22.252 22.3261C22.252 22.4838 22.2576 22.6452 22.2689 22.8086C22.543 22.6884 22.8265 22.5852 23.1137 22.4988C23.1118 22.4369 23.11 22.3806 23.11 22.3261C23.11 20.6347 23.8253 19.0053 25.072 17.8545L25.1395 17.7926L25.2071 17.8545C26.4538 19.0053 27.1672 20.6347 27.1672 22.3261C27.1672 22.4031 27.1654 22.4857 27.1616 22.5777C27.1466 22.94 27.0997 23.3023 27.0208 23.6552Z" fill="url(#paint1_radial_77_1808)"/>
        <path d="M20.5004 24.1827C19.2237 25.3278 18.4201 26.8991 18.2361 28.6036L18.2305 28.6506L18.2793 28.675C19.1692 29.0673 20.1117 29.2663 21.0843 29.2663C22.483 29.2663 23.8198 28.8571 24.9651 28.0836C24.7247 27.9072 24.4938 27.7119 24.2741 27.5036C23.3166 28.0949 22.2145 28.4084 21.0843 28.4084C20.4872 28.4084 19.8977 28.3221 19.3288 28.1493L19.2406 28.1231L19.1824 28.1062L19.1936 28.0555L19.2143 27.9654C19.6142 26.2383 20.7444 24.7759 22.314 23.9556C22.637 23.7866 22.9768 23.6458 23.3241 23.5388C23.9099 23.3567 24.5201 23.2647 25.1378 23.2647C25.7198 23.2647 26.2943 23.3455 26.8463 23.5069C26.9045 23.2253 26.9402 22.9362 26.9571 22.6471C26.3638 22.4857 25.7536 22.405 25.1378 22.405C24.4957 22.405 23.8573 22.4932 23.2415 22.6678C22.8923 22.7673 22.5487 22.8949 22.2202 23.047C21.5931 23.338 21.0148 23.719 20.5004 24.1827Z" fill="url(#paint2_radial_77_1808)"/>
        <path d="M29.1915 29.2663C30.164 29.2663 31.1084 29.0673 31.9983 28.6731L32.0021 28.6712L32.0453 28.6543L32.0396 28.6037C31.8556 26.8972 31.0521 25.3279 29.7754 24.1827C29.2947 23.751 28.7597 23.3905 28.1814 23.1089C28.1495 23.4093 28.0988 23.7059 28.0293 23.9931C29.5801 24.8304 30.6878 26.2909 31.0727 28.0142L31.0934 28.1043L31.0051 28.1325C30.4194 28.3164 29.8092 28.4084 29.1915 28.4084C28.0349 28.4084 26.9084 28.0799 25.9359 27.4604C25.628 27.2652 25.337 27.0399 25.0704 26.794C24.1804 25.9736 23.5646 24.9261 23.2811 23.7622C23.0051 23.8542 22.7366 23.965 22.4775 24.0964C22.7873 25.2772 23.4107 26.3603 24.2837 27.2333C24.3006 27.2502 24.3194 27.2671 24.3363 27.2858L24.355 27.3046C24.6179 27.5599 24.9014 27.7946 25.1943 28.0029C26.3658 28.8289 27.7477 29.2663 29.1915 29.2663Z" fill="url(#paint3_radial_77_1808)"/>
    </g>
    <path d="M58.2543 40H59.1938C59.7398 40 59.9683 39.7715 59.9683 39.2255V33.639C59.9683 33.1692 59.8921 32.4836 59.8921 32.4836H59.9175C59.9175 32.4836 60.3365 33.2073 60.6539 33.639L65.212 40H66.0246V32.1408C66.0246 31.9503 66.1262 31.8614 66.3039 31.8614H66.8499V31.0742H65.9103C65.3644 31.0742 65.1358 31.3028 65.1358 31.8487V37.4353C65.1358 37.9051 65.1993 38.6034 65.1993 38.6034H65.1739C65.1739 38.6034 64.7549 37.8797 64.4502 37.4353L59.8921 31.0742H59.0795V38.9335C59.0795 39.1239 58.978 39.2128 58.8002 39.2128H58.2543V40ZM68.726 40H69.6148V36.0006H72.8524V35.2134H69.6148V31.8614H72.3065C72.4842 31.8614 72.5858 31.9503 72.5858 32.1408V32.7375H73.4111V31.8487C73.4111 31.3028 73.1952 31.0742 72.6493 31.0742H67.9007V31.8614H68.726V40ZM77.195 40H78.0838V31.8614H80.2803C80.4707 31.8614 80.5596 31.9376 80.5596 32.1408V32.7375H81.3849V31.798C81.3849 31.252 81.2071 31.0742 80.6612 31.0742H74.6176C74.0716 31.0742 73.8939 31.252 73.8939 31.798V32.7375H74.7064V32.1408C74.7064 31.9376 74.808 31.8614 74.9858 31.8614H77.195V40Z" fill="url(#paint4_radial_77_1808)"/>
    <path d="M70.1024 11.2578V21.9074C70.1024 22.6658 70.2112 23.8166 70.2112 23.8166H70.1681C70.1681 23.8166 69.4302 22.602 68.9308 21.9074L60.2755 10H59.41V23.8372C59.41 24.162 59.2373 24.314 58.9331 24.314H58V25.1813H59.0852C59.9751 25.1813 60.3431 24.8134 60.3431 23.9236V13.2739C60.3431 12.5155 60.2342 11.3648 60.2342 11.3648H60.2774C60.2774 11.3648 61.0153 12.5793 61.5147 13.2739L70.1699 25.1813H71.0373V11.3441C71.0373 11.0193 71.2101 10.8673 71.5142 10.8673H72.4473V10H71.3622C70.4722 10 70.1024 10.3698 70.1024 11.2578Z" fill="url(#paint5_radial_77_1808)"/>
    <path d="M76.3485 10H75.3516V11.5825H76.3485V10Z" fill="url(#paint6_radial_77_1808)"/>
    <path d="M76.3919 23.8804V15.5961C76.3919 14.7063 76.0239 14.3383 75.134 14.3383H74.0713V15.1624H75.0044C75.3086 15.1624 75.4813 15.3145 75.4813 15.6393V23.9236C75.4813 24.8134 75.8493 25.1813 76.7392 25.1813H77.8019V24.3572H76.8688C76.5665 24.3572 76.3919 24.2052 76.3919 23.8804Z" fill="url(#paint7_radial_77_1808)"/>
    <path d="M88.8848 23.8804V11.2578C88.8848 10.3679 88.5168 10 87.6268 10H86.5642V10.8241H87.4973C87.8014 10.8241 87.9742 10.9762 87.9742 11.3009V15.5304C87.9742 16.0297 88.0174 16.4202 88.0174 16.4202H87.9742C87.9742 16.4202 86.9979 14.0774 84.2642 14.0774C81.4236 14.0774 79.4053 16.3113 79.4053 19.7598C79.4053 23.122 81.1833 25.4423 84.0896 25.4423C87.0824 25.4423 87.9723 23.0994 87.9723 23.0994H88.0155C88.0155 23.0994 87.9723 23.4242 87.9723 23.9236C87.9723 24.8134 88.3403 25.1813 89.2302 25.1813H90.2929V24.3572H89.3598C89.0594 24.3572 88.8848 24.2051 88.8848 23.8804ZM84.1347 24.5524C81.923 24.5524 80.3609 22.6883 80.3609 19.7598C80.3609 16.7243 82.0957 14.9447 84.2211 14.9447C86.7594 14.9447 87.9948 17.3307 87.9948 19.7373C87.9967 23.1426 86.1305 24.5524 84.1347 24.5524Z" fill="url(#paint8_radial_77_1808)"/>
    <path d="M101.748 23.8804V18.3068C101.748 15.7481 100.989 14.0774 98.1693 14.0774C95.4582 14.0774 93.9824 16.0072 93.6145 17.0265H93.5713C93.5713 17.0265 93.6145 16.6361 93.6145 16.1367V11.1921C93.6145 10.3679 93.2465 10 92.3565 10H91.292V10.8241H92.2251C92.5293 10.8241 92.702 10.9762 92.702 11.3009V25.1813H93.6126V19.8894C93.6126 19.3694 93.6558 18.87 93.7853 18.4138C94.3279 16.3977 96.1284 14.9653 98.1674 14.9653C100.597 14.9653 100.835 16.7431 100.835 18.6297V23.9217C100.835 24.8115 101.203 25.1794 102.093 25.1794H103.156V24.3553H102.223C101.921 24.3572 101.748 24.2052 101.748 23.8804Z" fill="url(#paint9_radial_77_1808)"/>
    <path d="M107.082 24.3572C106.777 24.3572 106.605 24.2052 106.605 23.8804V15.5961C106.605 14.7063 106.237 14.3383 105.347 14.3383H104.284V15.1624H105.217C105.521 15.1624 105.694 15.3145 105.694 15.6393V23.9236C105.694 24.8134 106.062 25.1813 106.952 25.1813H108.015V24.3572H107.082Z" fill="url(#paint10_radial_77_1808)"/>
    <path d="M106.561 10H105.564V11.5825H106.561V10Z" fill="url(#paint11_radial_77_1808)"/>
    <defs>
        <radialGradient id="paint0_radial_77_1808" cx="0" cy="0" r="1" gradientUnits="userSpaceOnUse" gradientTransform="translate(25.1381 25.1347) scale(25.1381 25.1347)">
            <stop stop-color="#FCD295"/>
            <stop offset="0.1833" stop-color="#FDD192"/>
            <stop offset="0.3319" stop-color="#FDCE88"/>
            <stop offset="0.4678" stop-color="#FEC877"/>
            <stop offset="0.5524" stop-color="#FFC368"/>
            <stop offset="0.7171" stop-color="#FFC265"/>
            <stop offset="0.8505" stop-color="#FFC05B"/>
            <stop offset="0.9725" stop-color="#FFBD4A"/>
            <stop offset="1" stop-color="#FFBC45"/>
        </radialGradient>
        <radialGradient id="paint1_radial_77_1808" cx="0" cy="0" r="1" gradientUnits="userSpaceOnUse" gradientTransform="translate(25.1378 21.9657) scale(4.25764 4.25707)">
            <stop stop-color="#FCD295"/>
            <stop offset="0.1833" stop-color="#FDD192"/>
            <stop offset="0.3319" stop-color="#FDCE88"/>
            <stop offset="0.4678" stop-color="#FEC877"/>
            <stop offset="0.5524" stop-color="#FFC368"/>
            <stop offset="0.7171" stop-color="#FFC265"/>
            <stop offset="0.8505" stop-color="#FFC05B"/>
            <stop offset="0.9725" stop-color="#FFBD4A"/>
            <stop offset="1" stop-color="#FFBC45"/>
        </radialGradient>
        <radialGradient id="paint2_radial_77_1808" cx="0" cy="0" r="1" gradientUnits="userSpaceOnUse" gradientTransform="translate(22.5938 25.8357) scale(3.92529 3.92476)">
            <stop stop-color="#FCD295"/>
            <stop offset="0.1833" stop-color="#FDD192"/>
            <stop offset="0.3319" stop-color="#FDCE88"/>
            <stop offset="0.4678" stop-color="#FEC877"/>
            <stop offset="0.5524" stop-color="#FFC368"/>
            <stop offset="0.7171" stop-color="#FFC265"/>
            <stop offset="0.8505" stop-color="#FFC05B"/>
            <stop offset="0.9725" stop-color="#FFBD4A"/>
            <stop offset="1" stop-color="#FFBC45"/>
        </radialGradient>
        <radialGradient id="paint3_radial_77_1808" cx="0" cy="0" r="1" gradientUnits="userSpaceOnUse" gradientTransform="translate(27.2616 26.1867) scale(4.0235 4.02296)">
            <stop stop-color="#FCD295"/>
            <stop offset="0.1833" stop-color="#FDD192"/>
            <stop offset="0.3319" stop-color="#FDCE88"/>
            <stop offset="0.4678" stop-color="#FEC877"/>
            <stop offset="0.5524" stop-color="#FFC368"/>
            <stop offset="0.7171" stop-color="#FFC265"/>
            <stop offset="0.8505" stop-color="#FFC05B"/>
            <stop offset="0.9725" stop-color="#FFBD4A"/>
            <stop offset="1" stop-color="#FFBC45"/>
        </radialGradient>
        <radialGradient id="paint4_radial_77_1808" cx="0" cy="0" r="1" gradientUnits="userSpaceOnUse" gradientTransform="translate(69.6536 34.9834) scale(16.7505 6.04151)">
            <stop stop-color="#FCD295"/>
            <stop offset="0.1833" stop-color="#FDD192"/>
            <stop offset="0.3319" stop-color="#FDCE88"/>
            <stop offset="0.4678" stop-color="#FEC877"/>
            <stop offset="0.5524" stop-color="#FFC368"/>
            <stop offset="0.7171" stop-color="#FFC265"/>
            <stop offset="0.8505" stop-color="#FFC05B"/>
            <stop offset="0.9725" stop-color="#FFBD4A"/>
            <stop offset="1" stop-color="#FFBC45"/>
        </radialGradient>
        <radialGradient id="paint5_radial_77_1808" cx="0" cy="0" r="1" gradientUnits="userSpaceOnUse" gradientTransform="translate(65.2228 17.5913) scale(7.4096 7.40862)">
            <stop stop-color="#FCD295"/>
            <stop offset="0.1833" stop-color="#FDD192"/>
            <stop offset="0.3319" stop-color="#FDCE88"/>
            <stop offset="0.4678" stop-color="#FEC877"/>
            <stop offset="0.5524" stop-color="#FFC368"/>
            <stop offset="0.7171" stop-color="#FFC265"/>
            <stop offset="0.8505" stop-color="#FFC05B"/>
            <stop offset="0.9725" stop-color="#FFBD4A"/>
            <stop offset="1" stop-color="#FFBC45"/>
        </radialGradient>
        <radialGradient id="paint6_radial_77_1808" cx="0" cy="0" r="1" gradientUnits="userSpaceOnUse" gradientTransform="translate(75.8497 10.7922) scale(0.661686)">
            <stop stop-color="#FCD295"/>
            <stop offset="0.1833" stop-color="#FDD192"/>
            <stop offset="0.3319" stop-color="#FDCE88"/>
            <stop offset="0.4678" stop-color="#FEC877"/>
            <stop offset="0.5524" stop-color="#FFC368"/>
            <stop offset="0.7171" stop-color="#FFC265"/>
            <stop offset="0.8505" stop-color="#FFC05B"/>
            <stop offset="0.9725" stop-color="#FFBD4A"/>
            <stop offset="1" stop-color="#FFBC45"/>
        </radialGradient>
        <radialGradient id="paint7_radial_77_1808" cx="0" cy="0" r="1" gradientUnits="userSpaceOnUse" gradientTransform="translate(75.9366 19.7601) scale(4.05495 4.05441)">
            <stop stop-color="#FCD295"/>
            <stop offset="0.1833" stop-color="#FDD192"/>
            <stop offset="0.3319" stop-color="#FDCE88"/>
            <stop offset="0.4678" stop-color="#FEC877"/>
            <stop offset="0.5524" stop-color="#FFC368"/>
            <stop offset="0.7171" stop-color="#FFC265"/>
            <stop offset="0.8505" stop-color="#FFC05B"/>
            <stop offset="0.9725" stop-color="#FFBD4A"/>
            <stop offset="1" stop-color="#FFBC45"/>
        </radialGradient>
        <radialGradient id="paint8_radial_77_1808" cx="0" cy="0" r="1" gradientUnits="userSpaceOnUse" gradientTransform="translate(84.851 17.7214) scale(6.68085 6.67997)">
            <stop stop-color="#FCD295"/>
            <stop offset="0.1833" stop-color="#FDD192"/>
            <stop offset="0.3319" stop-color="#FDCE88"/>
            <stop offset="0.4678" stop-color="#FEC877"/>
            <stop offset="0.5524" stop-color="#FFC368"/>
            <stop offset="0.7171" stop-color="#FFC265"/>
            <stop offset="0.8505" stop-color="#FFC05B"/>
            <stop offset="0.9725" stop-color="#FFBD4A"/>
            <stop offset="1" stop-color="#FFBC45"/>
        </radialGradient>
        <radialGradient id="paint9_radial_77_1808" cx="0" cy="0" r="1" gradientUnits="userSpaceOnUse" gradientTransform="translate(97.2247 17.5913) scale(6.81275 6.81185)">
            <stop stop-color="#FCD295"/>
            <stop offset="0.1833" stop-color="#FDD192"/>
            <stop offset="0.3319" stop-color="#FDCE88"/>
            <stop offset="0.4678" stop-color="#FEC877"/>
            <stop offset="0.5524" stop-color="#FFC368"/>
            <stop offset="0.7171" stop-color="#FFC265"/>
            <stop offset="0.8505" stop-color="#FFC05B"/>
            <stop offset="0.9725" stop-color="#FFBD4A"/>
            <stop offset="1" stop-color="#FFBC45"/>
        </radialGradient>
        <radialGradient id="paint10_radial_77_1808" cx="0" cy="0" r="1" gradientUnits="userSpaceOnUse" gradientTransform="translate(106.149 19.7601) scale(4.05492 4.05439)">
            <stop stop-color="#FCD295"/>
            <stop offset="0.1833" stop-color="#FDD192"/>
            <stop offset="0.3319" stop-color="#FDCE88"/>
            <stop offset="0.4678" stop-color="#FEC877"/>
            <stop offset="0.5524" stop-color="#FFC368"/>
            <stop offset="0.7171" stop-color="#FFC265"/>
            <stop offset="0.8505" stop-color="#FFC05B"/>
            <stop offset="0.9725" stop-color="#FFBD4A"/>
            <stop offset="1" stop-color="#FFBC45"/>
        </radialGradient>
        <radialGradient id="paint11_radial_77_1808" cx="0" cy="0" r="1" gradientUnits="userSpaceOnUse" gradientTransform="translate(106.062 10.7922) scale(0.661696)">
            <stop stop-color="#FCD295"/>
            <stop offset="0.1833" stop-color="#FDD192"/>
            <stop offset="0.3319" stop-color="#FDCE88"/>
            <stop offset="0.4678" stop-color="#FEC877"/>
            <stop offset="0.5524" stop-color="#FFC368"/>
            <stop offset="0.7171" stop-color="#FFC265"/>
            <stop offset="0.8505" stop-color="#FFC05B"/>
            <stop offset="0.9725" stop-color="#FFBD4A"/>
            <stop offset="1" stop-color="#FFBC45"/>
        </radialGradient>
        <clipPath id="clip0_77_1808">
            <rect width="50" height="51" fill="white"/>
        </clipPath>
    </defs>
</svg>
