<svg width="48" height="42" viewBox="0 0 48 42" fill="none" xmlns="http://www.w3.org/2000/svg">
    <path fill-rule="evenodd" clip-rule="evenodd" d="M6.5998 0.700012C5.06155 0.700012 3.5863 1.31108 2.49858 2.39879C1.41087 3.4865 0.799805 4.96176 0.799805 6.50001V35.5C0.799805 37.0383 1.41087 38.5135 2.49858 39.6012C3.5863 40.6889 5.06155 41.3 6.5998 41.3H41.3998C42.9381 41.3 44.4133 40.6889 45.501 39.6012C46.5887 38.5135 47.1998 37.0383 47.1998 35.5V6.50001C47.1998 4.96176 46.5887 3.4865 45.501 2.39879C44.4133 1.31108 42.9381 0.700012 41.3998 0.700012H6.5998ZM41.3998 35.5H6.5998L18.1998 12.3L26.8998 29.7L32.6998 18.1L41.3998 35.5Z" fill="white"/>
</svg>
