<svg width="14" height="16" viewBox="0 0 14 16" fill="none" xmlns="http://www.w3.org/2000/svg">
<path fill-rule="evenodd" clip-rule="evenodd" d="M2.00012 7.00003V5.00003C2.00012 3.67395 2.52691 2.40218 3.46459 1.4645C4.40227 0.526815 5.67404 3.05176e-05 7.00012 3.05176e-05C8.32621 3.05176e-05 9.59798 0.526815 10.5357 1.4645C11.4733 2.40218 12.0001 3.67395 12.0001 5.00003V7.00003C12.5306 7.00003 13.0393 7.21074 13.4143 7.58582C13.7894 7.96089 14.0001 8.4696 14.0001 9.00003V14C14.0001 14.5305 13.7894 15.0392 13.4143 15.4142C13.0393 15.7893 12.5306 16 12.0001 16H2.00012C1.46969 16 0.960981 15.7893 0.585909 15.4142C0.210836 15.0392 0.00012207 14.5305 0.00012207 14V9.00003C0.00012207 8.4696 0.210836 7.96089 0.585909 7.58582C0.960981 7.21074 1.46969 7.00003 2.00012 7.00003ZM10.0001 5.00003V7.00003H4.00012V5.00003C4.00012 4.20438 4.31619 3.44132 4.8788 2.87871C5.44141 2.3161 6.20447 2.00003 7.00012 2.00003C7.79577 2.00003 8.55884 2.3161 9.12145 2.87871C9.68406 3.44132 10.0001 4.20438 10.0001 5.00003Z" fill="white"/>
</svg>
