<svg width="14" height="14" viewBox="0 0 14 14" fill="none" xmlns="http://www.w3.org/2000/svg">
    <path fill-rule="evenodd" clip-rule="evenodd" d="M3.5001 6.30002V4.90002C3.5001 3.97177 3.86885 3.08153 4.52522 2.42515C5.1816 1.76877 6.07184 1.40002 7.0001 1.40002C7.92836 1.40002 8.8186 1.76877 9.47497 2.42515C10.1314 3.08153 10.5001 3.97177 10.5001 4.90002V6.30002C10.8714 6.30002 11.2275 6.44752 11.4901 6.71007C11.7526 6.97263 11.9001 7.32872 11.9001 7.70002V11.2C11.9001 11.5713 11.7526 11.9274 11.4901 12.19C11.2275 12.4525 10.8714 12.6 10.5001 12.6H3.5001C3.12879 12.6 2.7727 12.4525 2.51015 12.19C2.2476 11.9274 2.1001 11.5713 2.1001 11.2V7.70002C2.1001 7.32872 2.2476 6.97263 2.51015 6.71007C2.7727 6.44752 3.12879 6.30002 3.5001 6.30002ZM9.1001 4.90002V6.30002H4.9001V4.90002C4.9001 4.34307 5.12135 3.80893 5.51517 3.4151C5.909 3.02127 6.44314 2.80002 7.0001 2.80002C7.55705 2.80002 8.0912 3.02127 8.48502 3.4151C8.87885 3.80893 9.1001 4.34307 9.1001 4.90002Z" fill="white"/>
</svg>
