<svg width="27" height="24" viewBox="0 0 27 24" fill="none" xmlns="http://www.w3.org/2000/svg">
  <path fill-rule="evenodd" clip-rule="evenodd" d="M16.7242 13.2835C16.2925 15.2135 15.3847 16.9834 14.0766 18.4551C13.738 18.836 13.7438 19.4275 14.1513 19.7335C14.3327 19.8697 14.5182 20.0005 14.7067 20.1259C14.7242 20.1376 14.75 20.1372 14.763 20.1206C14.7648 20.1183 14.7665 20.1162 14.7686 20.1141C16.4647 18.4116 17.6681 16.2902 18.2432 13.9791C18.4077 13.3158 18.5256 12.6238 18.5864 11.9318C18.6221 11.5339 18.64 11.1323 18.64 10.7451C18.64 6.52868 16.6134 2.52741 13.2214 0.0391588L13.2035 0.0248169C13.1692 -0.00753578 13.1158 -0.00799656 13.081 0.0237601L13.0641 0.0391588C9.66855 2.52741 7.64551 6.52868 7.64551 10.7451C7.64551 11.194 8.1117 11.477 8.53378 11.3242C8.67881 11.2717 8.82472 11.2215 8.9713 11.1737C9.15636 11.1133 9.27895 10.9397 9.27895 10.7451C9.27895 7.51465 10.6408 4.40255 13.0141 2.20472C13.0868 2.13783 13.1987 2.13783 13.2714 2.20472C15.6447 4.40255 17.003 7.51465 17.003 10.7451C17.003 10.8921 16.9994 11.0498 16.9922 11.2255C16.9636 11.9175 16.8743 12.6095 16.7242 13.2835ZM4.31149 14.2907C1.88099 16.4778 0.351193 19.4787 0.000913658 22.7342C-0.00551997 22.788 0.0224667 22.8401 0.0708835 22.8643L0.0831232 22.8705C1.77733 23.6198 3.57162 23.9999 5.42309 23.9999C7.70912 23.9999 9.90821 23.4238 11.8643 22.3262C12.338 22.0604 12.3553 21.4027 11.9466 21.0449C11.6773 20.8092 11.2848 20.7673 10.9711 20.9395C9.27535 21.8706 7.3712 22.3614 5.42309 22.3614C4.28647 22.3614 3.16415 22.1964 2.08114 21.8666L1.91315 21.8164L1.89755 21.8118C1.844 21.7962 1.81173 21.7418 1.8238 21.6873L1.86311 21.5152C2.62443 18.2167 4.77615 15.4237 7.76424 13.8569C8.37902 13.5342 9.02597 13.2653 9.68721 13.0609C10.8024 12.7131 11.964 12.5374 13.14 12.5374C13.928 12.5374 14.7088 12.6154 15.4721 12.7714C15.9726 12.8737 16.4829 12.5722 16.542 12.0648C16.5898 11.6547 16.319 11.2769 15.9154 11.1899C15.0043 10.9935 14.0756 10.8953 13.14 10.8953C11.9176 10.8953 10.7023 11.0639 9.52994 11.3973C8.86512 11.5873 8.21103 11.8311 7.58553 12.1215C6.39172 12.6773 5.29085 13.4051 4.31149 14.2907ZM26.2009 22.8669C24.5067 23.6199 22.7088 23.9999 20.8574 23.9999C18.1087 23.9999 15.4781 23.1645 13.2477 21.5869C12.6901 21.189 12.1504 20.7408 11.65 20.2532L11.6143 20.2173C11.5927 20.1933 11.5695 20.1709 11.5469 20.149C11.5358 20.1382 11.5248 20.1276 11.5142 20.117C10.0201 18.6182 8.91009 16.7948 8.27261 14.8033C8.14705 14.411 8.33599 13.9893 8.71447 13.8267C9.18591 13.6243 9.70671 13.917 9.86796 14.4041C10.4824 16.2601 11.5539 17.9297 13.0118 19.278C13.5194 19.7477 14.0734 20.1779 14.6596 20.5508C16.511 21.7339 18.6556 22.3614 20.8574 22.3614C22.0333 22.3614 23.1949 22.1857 24.3101 21.8343C24.4051 21.8039 24.461 21.7057 24.4388 21.6085C23.7499 18.5138 21.8444 15.8629 19.165 14.2279C18.863 14.0436 18.7041 13.694 18.7706 13.3465C18.8725 12.8145 19.449 12.4928 19.9138 12.771C20.6443 13.2083 21.3318 13.7165 21.969 14.2907C24.3995 16.4778 25.9293 19.4752 26.2795 22.7343L26.2805 22.7433C26.2863 22.7951 26.2566 22.8443 26.2081 22.8633L26.2009 22.8669Z" fill="url(#paint0_linear_1457_446)" />
  <defs>
    <linearGradient id="paint0_linear_1457_446" x1="24.9999" y1="2.50001" x2="-2.63248" y2="6.23861" gradientUnits="userSpaceOnUse">
      <stop stop-color="#FF4F4F" />
      <stop offset="1" stop-color="#2E5CFF" />
    </linearGradient>
  </defs>
</svg>
