<svg width="288" height="287" viewBox="0 0 288 287" fill="none" xmlns="http://www.w3.org/2000/svg">
    <g clip-path="url(#clip0_1559_398)">
        <g filter="url(#filter0_bd_1559_398)">
            <rect width="288" height="287" rx="20" fill="black"/>
            <path d="M38 222C38 169.533 80.5329 127 133 127" stroke="url(#paint0_linear_1559_398)" stroke-width="8" stroke-linecap="round" fill="black"/>
            <g filter="url(#filter1_d_1559_398)">
                <circle cx="38.281" cy="220.281" r="6.28099" fill="white"/>
            </g>
            <circle cx="38.2806" cy="220.281" r="3.92562" fill="#182328"/>
        </g>
        <path d="M31.865 48.1995C30.8259 48.1995 29.9001 48.012 29.0876 47.637C28.2751 47.2542 27.6384 46.7151 27.1775 46.0198C26.7244 45.3167 26.5095 44.4846 26.533 43.5237L26.5681 43.4534H28.7712C28.7712 44.0549 28.8962 44.5745 29.1462 45.012C29.3962 45.4495 29.7517 45.7893 30.2126 46.0315C30.6736 46.2737 31.2244 46.3948 31.865 46.3948C32.8416 46.3948 33.6072 46.1292 34.1619 45.5979C34.7166 45.0667 34.9939 44.2815 34.9939 43.2424C34.9939 42.1877 34.7478 41.4104 34.2556 40.9104C33.7634 40.4104 32.9861 40.1604 31.9236 40.1604H29.908V38.3557H31.9236C32.6033 38.3557 33.1501 38.2424 33.5642 38.0159C33.9783 37.7815 34.2751 37.4495 34.4548 37.0198C34.6423 36.5823 34.7361 36.0588 34.7361 35.4495C34.7361 34.4729 34.4939 33.7307 34.0095 33.2229C33.5251 32.7151 32.8103 32.4612 31.865 32.4612C31.2634 32.4612 30.74 32.5823 30.2947 32.8245C29.8494 33.0588 29.5017 33.3948 29.2517 33.8323C29.0095 34.262 28.8884 34.7698 28.8884 35.3557H26.6736L26.6501 35.2854C26.6267 34.426 26.8298 33.6448 27.2595 32.9417C27.697 32.2385 28.3103 31.6799 29.0994 31.2659C29.8962 30.8518 30.8181 30.6448 31.865 30.6448C33.4431 30.6448 34.7009 31.0667 35.6384 31.9104C36.5759 32.7463 37.0447 33.9417 37.0447 35.4963C37.0447 36.1995 36.8298 36.9026 36.4001 37.6057C35.9783 38.301 35.3416 38.8323 34.49 39.1995C35.5134 39.5354 36.2361 40.0627 36.658 40.7815C37.0876 41.5002 37.3025 42.3049 37.3025 43.1956C37.3025 44.2346 37.0681 45.1292 36.5994 45.8792C36.1384 46.6213 35.4978 47.1956 34.6775 47.6018C33.8572 48.0002 32.9197 48.1995 31.865 48.1995ZM41.3853 51.5979L40.0845 50.7307C40.4517 50.1682 40.7291 49.594 40.9166 49.0081C41.1041 48.4221 41.1978 47.801 41.1978 47.1448V45.3635H43.5064V47.1096C43.5064 47.8752 43.315 48.676 42.9322 49.512C42.5494 50.3479 42.0337 51.0432 41.3853 51.5979ZM51.9603 48.1995C50.9212 48.1995 49.9955 48.012 49.183 47.637C48.3705 47.2542 47.7337 46.7151 47.2728 46.0198C46.8197 45.3167 46.6048 44.4846 46.6283 43.5237L46.6634 43.4534H48.8666C48.8666 44.0549 48.9916 44.5745 49.2416 45.012C49.4916 45.4495 49.847 45.7893 50.308 46.0315C50.7689 46.2737 51.3197 46.3948 51.9603 46.3948C52.9369 46.3948 53.7025 46.1292 54.2572 45.5979C54.8119 45.0667 55.0892 44.2815 55.0892 43.2424C55.0892 42.1877 54.8431 41.4104 54.3509 40.9104C53.8587 40.4104 53.0814 40.1604 52.0189 40.1604H50.0033V38.3557H52.0189C52.6986 38.3557 53.2455 38.2424 53.6595 38.0159C54.0736 37.7815 54.3705 37.4495 54.5501 37.0198C54.7376 36.5823 54.8314 36.0588 54.8314 35.4495C54.8314 34.4729 54.5892 33.7307 54.1048 33.2229C53.6205 32.7151 52.9056 32.4612 51.9603 32.4612C51.3587 32.4612 50.8353 32.5823 50.39 32.8245C49.9447 33.0588 49.597 33.3948 49.347 33.8323C49.1048 34.262 48.9837 34.7698 48.9837 35.3557H46.7689L46.7455 35.2854C46.722 34.426 46.9251 33.6448 47.3548 32.9417C47.7923 32.2385 48.4056 31.6799 49.1947 31.2659C49.9916 30.8518 50.9134 30.6448 51.9603 30.6448C53.5384 30.6448 54.7962 31.0667 55.7337 31.9104C56.6712 32.7463 57.14 33.9417 57.14 35.4963C57.14 36.1995 56.9251 36.9026 56.4955 37.6057C56.0736 38.301 55.4369 38.8323 54.5853 39.1995C55.6087 39.5354 56.3314 40.0627 56.7533 40.7815C57.183 41.5002 57.3978 42.3049 57.3978 43.1956C57.3978 44.2346 57.1634 45.1292 56.6947 45.8792C56.2337 46.6213 55.5931 47.1956 54.7728 47.6018C53.9525 48.0002 53.015 48.1995 51.9603 48.1995ZM65.465 46.2424V40.8635H60.7658V38.7776H65.465V33.8206H67.7736V38.7776H72.4611V40.8635H67.7736V46.2424H65.465ZM75.5126 47.9534V46.4768L77.4228 46.1487V32.7073L75.5126 32.3792V30.8909H77.4228H79.7548L88.122 44.1917L88.1923 44.1682V32.7073L86.0947 32.3792V30.8909H90.3134H92.2236V32.3792L90.3134 32.7073V47.9534H88.2041L79.6142 34.5823L79.5439 34.6057V46.1487L81.6416 46.4768V47.9534H75.5126ZM95.3455 47.9534V46.4768L97.2556 46.1487V32.7073L95.3455 32.3792V30.8909H108.177V34.9924H106.326L106.068 32.6838H99.5642V38.5901H105.81V40.4065H99.5642V46.1487L101.474 46.4768V47.9534H95.3455ZM115.706 47.9534V46.4768L117.616 46.1487V32.637H113.749L113.409 35.0042H111.674V30.8909H125.854V35.0042H124.143L123.792 32.637H119.924V46.1487L121.835 46.4768V47.9534H115.706Z" fill="white"/>
    </g>
    <defs>
        <filter id="filter0_bd_1559_398" x="-40" y="-40" width="368" height="367" filterUnits="userSpaceOnUse" color-interpolation-filters="sRGB">
            <feFlood flood-opacity="0" result="BackgroundImageFix"/>
            <feGaussianBlur in="BackgroundImage" stdDeviation="20"/>
            <feComposite in2="SourceAlpha" operator="in" result="effect1_backgroundBlur_1559_398"/>
            <feColorMatrix in="SourceAlpha" type="matrix" values="0 0 0 0 0 0 0 0 0 0 0 0 0 0 0 0 0 0 127 0" result="hardAlpha"/>
            <feOffset dy="20"/>
            <feGaussianBlur stdDeviation="10"/>
            <feComposite in2="hardAlpha" operator="out"/>
            <feColorMatrix type="matrix" values="0 0 0 0 0 0 0 0 0 0 0 0 0 0 0 0 0 0 0.05 0"/>
            <feBlend mode="normal" in2="effect1_backgroundBlur_1559_398" result="effect2_dropShadow_1559_398"/>
            <feBlend mode="normal" in="SourceGraphic" in2="effect2_dropShadow_1559_398" result="shape"/>
        </filter>
        <filter id="filter1_d_1559_398" x="28.8595" y="214" width="18.843" height="18.843" filterUnits="userSpaceOnUse" color-interpolation-filters="sRGB">
            <feFlood flood-opacity="0" result="BackgroundImageFix"/>
            <feColorMatrix in="SourceAlpha" type="matrix" values="0 0 0 0 0 0 0 0 0 0 0 0 0 0 0 0 0 0 127 0" result="hardAlpha"/>
            <feOffset dy="3.1405"/>
            <feGaussianBlur stdDeviation="1.57025"/>
            <feComposite in2="hardAlpha" operator="out"/>
            <feColorMatrix type="matrix" values="0 0 0 0 0 0 0 0 0 0 0 0 0 0 0 0 0 0 0.5 0"/>
            <feBlend mode="normal" in2="BackgroundImageFix" result="effect1_dropShadow_1559_398"/>
            <feBlend mode="normal" in="SourceGraphic" in2="effect1_dropShadow_1559_398" result="shape"/>
        </filter>
        <linearGradient id="paint0_linear_1559_398" x1="133" y1="127" x2="38" y2="222" gradientUnits="userSpaceOnUse">
            <stop stop-color="white"/>
            <stop offset="1" stop-color="#5F5F5F"/>
        </linearGradient>
        <clipPath id="clip0_1559_398">
            <rect width="288" height="287" fill="white"/>
        </clipPath>
    </defs>
</svg>
