<svg width="16" height="16" viewBox="0 0 16 16" fill="none" xmlns="http://www.w3.org/2000/svg">
    <path d="M7.66667 2.66667V1M7.66667 2.66667C7.22464 2.66667 6.80072 2.84226 6.48816 3.15482C6.17559 3.46738 6 3.89131 6 4.33333C6 4.77536 6.17559 5.19928 6.48816 5.51184C6.80072 5.8244 7.22464 6 7.66667 6M7.66667 2.66667C8.10869 2.66667 8.53262 2.84226 8.84518 3.15482C9.15774 3.46738 9.33333 3.89131 9.33333 4.33333C9.33333 4.77536 9.15774 5.19928 8.84518 5.51184C8.53262 5.8244 8.10869 6 7.66667 6M7.66667 6V14.3333M2.66667 12.6667C3.10869 12.6667 3.53262 12.4911 3.84518 12.1785C4.15774 11.8659 4.33333 11.442 4.33333 11C4.33333 10.558 4.15774 10.134 3.84518 9.82149C3.53262 9.50893 3.10869 9.33333 2.66667 9.33333M2.66667 12.6667C2.22464 12.6667 1.80072 12.4911 1.48816 12.1785C1.17559 11.8659 1 11.442 1 11C1 10.558 1.17559 10.134 1.48816 9.82149C1.80072 9.50893 2.22464 9.33333 2.66667 9.33333M2.66667 12.6667V14.3333M2.66667 9.33333V1M12.6667 12.6667C13.1087 12.6667 13.5326 12.4911 13.8452 12.1785C14.1577 11.8659 14.3333 11.442 14.3333 11C14.3333 10.558 14.1577 10.134 13.8452 9.82149C13.5326 9.50893 13.1087 9.33333 12.6667 9.33333M12.6667 12.6667C12.2246 12.6667 11.8007 12.4911 11.4882 12.1785C11.1756 11.8659 11 11.442 11 11C11 10.558 11.1756 10.134 11.4882 9.82149C11.8007 9.50893 12.2246 9.33333 12.6667 9.33333M12.6667 12.6667V14.3333M12.6667 9.33333V1" stroke="white" stroke-width="1.5" stroke-linecap="round" stroke-linejoin="round"/>
</svg>
