<svg width="16" height="15" viewBox="0 0 16 15" fill="none" xmlns="http://www.w3.org/2000/svg">
<path d="M7.04897 0.927002C7.34897 0.00600183 8.65197 0.00600183 8.95097 0.927002L10.021 4.219C10.0863 4.41949 10.2134 4.59418 10.384 4.71811C10.5547 4.84203 10.7601 4.90885 10.971 4.909H14.433C15.402 4.909 15.804 6.149 15.021 6.719L12.221 8.753C12.05 8.87703 11.9227 9.05201 11.8573 9.25285C11.7919 9.4537 11.7918 9.67009 11.857 9.871L12.927 13.163C13.227 14.084 12.172 14.851 11.387 14.281L8.58697 12.247C8.41618 12.123 8.21053 12.0562 7.99947 12.0562C7.78842 12.0562 7.58277 12.123 7.41197 12.247L4.61197 14.281C3.82797 14.851 2.77397 14.084 3.07297 13.163L4.14297 9.871C4.20815 9.67009 4.20803 9.4537 4.14264 9.25285C4.07725 9.05201 3.94994 8.87703 3.77897 8.753L0.979974 6.72C0.196974 6.15 0.599974 4.91 1.56797 4.91H5.02897C5.24002 4.91006 5.44568 4.84334 5.6165 4.7194C5.78732 4.59546 5.91455 4.42065 5.97997 4.22L7.04997 0.928002L7.04897 0.927002Z" fill="white"/>
</svg>
