<svg width="150" height="24" viewBox="0 0 150 24" fill="none" xmlns="http://www.w3.org/2000/svg">
  <path d="M6.95584 2.9699H1.75834C1.02334 2.9699 0.42334 2.3699 0.42334 1.6349C0.42334 0.899902 1.02334 0.337402 1.75834 0.337402H14.9883C15.7233 0.337402 16.2858 0.907402 16.2858 1.6349C16.2858 2.3624 15.7158 2.9699 14.9883 2.9699H9.79084V22.4999C9.79084 23.2649 9.16084 23.9324 8.35834 23.9324C7.59334 23.9324 6.95584 23.2649 6.95584 22.4999V2.9699Z" fill="white"/>
  <path d="M56.0734 0.067627C55.2709 0.067627 54.6409 0.735127 54.6409 1.50013V18.7351L41.8984 0.600127C41.6659 0.300127 41.2309 0.067627 40.7659 0.067627C39.9334 0.067627 39.2959 0.735127 39.2959 1.56763V22.5001C39.2959 23.2651 39.9259 23.9326 40.6984 23.9326C41.5009 23.9326 42.1309 23.2651 42.1309 22.5001V5.26513L54.6334 23.1226C54.9934 23.6551 55.5034 23.9326 55.9984 23.9326C56.8309 23.9326 57.4684 23.2651 57.4684 22.4326V1.50013C57.4684 0.735127 56.8384 0.067627 56.0734 0.067627Z" fill="white"/>
  <path d="M62.5308 12C62.5308 5.3025 67.7658 0 74.3958 0C78.1308 0 81.3633 1.7025 83.4258 4.2C83.6958 4.5 83.8233 4.8675 83.8233 5.1975C83.8233 5.9625 83.1933 6.6 82.3908 6.6C82.0233 6.6 81.5883 6.3675 81.2583 6.03C79.6608 4.0275 77.2608 2.7 74.3883 2.7C69.3858 2.7 65.4558 6.8025 65.4558 12C65.4558 17.1675 69.3858 21.27 74.3883 21.27C78.7533 21.27 82.2183 18.135 83.0208 13.9725H76.3533C75.6183 13.9725 75.0558 13.4025 75.0558 12.675C75.0558 11.94 75.6258 11.34 76.3533 11.34H84.8883C85.6233 11.34 86.1858 11.94 86.1858 12.7425C85.9983 18.435 81.1308 24 74.4033 24C67.7658 24 62.5308 18.6975 62.5308 12Z" fill="white"/>
  <path d="M91.4658 1.50013C91.4658 0.697627 92.0958 0.067627 92.8683 0.067627C93.6708 0.067627 94.3008 0.697627 94.3008 1.50013V22.5001C94.3008 23.2651 93.6708 23.9326 92.8683 23.9326C92.1033 23.9326 91.4658 23.2651 91.4658 22.5001V1.50013Z" fill="white"/>
  <path d="M110.336 11.7676C112.803 10.8676 113.906 8.70008 113.906 6.60008C113.906 3.13508 111.176 0.330078 107.373 0.330078H101.876C101.111 0.330078 100.473 0.960078 100.473 1.73258V22.2301C100.473 23.0326 101.103 23.6626 101.876 23.6626H107.576C111.446 23.6626 114.243 20.7976 114.243 17.2651C114.236 14.9326 112.901 12.6676 110.336 11.7676ZM106.968 2.97008C109.398 2.97008 110.966 4.63508 110.966 6.77258C110.966 8.87258 109.301 10.5376 107.201 10.5376H103.301V2.97008H106.968ZM107.171 21.0301H103.301V13.1701H107.403C109.571 13.1701 111.303 14.9401 111.303 17.1001C111.303 19.2976 109.668 21.0301 107.171 21.0301Z" fill="white"/>
  <path d="M119.673 1.50013C119.673 0.697627 120.303 0.067627 121.076 0.067627C121.878 0.067627 122.508 0.697627 122.508 1.50013V21.0301H130.541C131.276 21.0301 131.838 21.6001 131.838 22.3276C131.838 23.0626 131.268 23.6626 130.541 23.6626H121.076C120.311 23.6626 119.673 23.0326 119.673 22.2301V1.50013Z" fill="white"/>
  <path d="M35.3206 20.745L26.6956 1.5375C25.9681 -0.075 24.7906 -0.075 24.0631 1.5375L15.4456 20.745C14.7181 22.3575 15.5731 23.6775 17.3431 23.6775H33.4231C35.1856 23.6775 36.0406 22.3575 35.3206 20.745ZM18.3481 21.0375L25.3831 5.265L32.4181 21.0375H18.3481Z" fill="white"/>
  <path d="M137.561 3.02251H148.638C149.381 3.02251 149.988 2.42251 149.988 1.67251C149.988 0.93001 149.388 0.32251 148.638 0.32251H137.561C136.818 0.32251 136.211 0.92251 136.211 1.67251C136.211 2.41501 136.818 3.02251 137.561 3.02251Z" fill="white"/>
  <path d="M137.561 23.6775H148.638C149.381 23.6775 149.988 23.0775 149.988 22.3275C149.988 21.585 149.388 20.9775 148.638 20.9775H137.561C136.818 20.9775 136.211 21.5775 136.211 22.3275C136.211 23.0775 136.818 23.6775 137.561 23.6775Z" fill="white"/>
  <path d="M139.383 13.2601H146.816C147.558 13.2601 148.166 12.6601 148.166 11.9101C148.166 11.1676 147.566 10.5601 146.816 10.5601H139.383C138.641 10.5601 138.033 11.1601 138.033 11.9101C138.041 12.6601 138.641 13.2601 139.383 13.2601Z" fill="white"/>
</svg>
