<svg width="16" height="16" viewBox="0 0 16 16" fill="none" xmlns="http://www.w3.org/2000/svg">
    <circle cx="8" cy="8" r="8" fill="url(#paint0_linear_1504_1406)"/>
    <path fill-rule="evenodd" clip-rule="evenodd" d="M9.36407 8.14092C9.19983 8.87525 8.85443 9.54867 8.35669 10.1086C8.22787 10.2536 8.23006 10.4786 8.38513 10.5951C8.45416 10.6469 8.52472 10.6967 8.59645 10.7444C8.60312 10.7488 8.61294 10.7487 8.61788 10.7424L8.61999 10.7399C9.26535 10.0921 9.72324 9.28494 9.94206 8.40557C10.0046 8.1532 10.0495 7.88991 10.0726 7.62662C10.0862 7.47519 10.093 7.32241 10.093 7.17507C10.093 5.57078 9.32191 4.04835 8.0313 3.1016L8.0245 3.09614C8.01146 3.08383 7.99114 3.08366 7.97789 3.09574L7.97146 3.1016C6.67949 4.04835 5.90975 5.57078 5.90975 7.17507C5.90975 7.34587 6.08713 7.45355 6.24773 7.39542C6.30291 7.37544 6.35843 7.35636 6.4142 7.33817C6.48461 7.3152 6.53126 7.24914 6.53126 7.17507C6.53126 5.94594 7.0494 4.76182 7.95242 3.92557C7.9801 3.90012 8.02266 3.90012 8.05034 3.92557C8.95336 4.76182 9.47015 5.94594 9.47015 7.17507C9.47015 7.23101 9.46879 7.29103 9.46607 7.35787C9.45519 7.62116 9.42119 7.88445 9.36407 8.14092ZM4.64121 8.52413C3.71643 9.35629 3.13436 10.4981 3.00108 11.7368C2.99863 11.7573 3.00928 11.7771 3.0277 11.7863L3.03236 11.7886C3.67699 12.0738 4.35969 12.2184 5.06416 12.2184C5.93396 12.2184 6.77069 11.9992 7.51497 11.5815C7.6952 11.4804 7.70179 11.2302 7.54628 11.094C7.44381 11.0043 7.29448 10.9884 7.17511 11.0539C6.52989 11.4082 5.80539 11.5949 5.06416 11.5949C4.63169 11.5949 4.20465 11.5322 3.79258 11.4067L3.72867 11.3876L3.72273 11.3858C3.70235 11.3799 3.69008 11.3592 3.69467 11.3385L3.70962 11.273C3.9993 10.0179 4.818 8.95522 5.95494 8.35907C6.18885 8.23629 6.43501 8.13397 6.6866 8.05622C7.11091 7.92389 7.5529 7.85704 8.00033 7.85704C8.30017 7.85704 8.59726 7.88672 8.88768 7.94606C9.07812 7.98497 9.27228 7.87028 9.29478 7.67722C9.31296 7.52117 9.20992 7.37743 9.05635 7.34432C8.70971 7.2696 8.35632 7.23224 8.00033 7.23224C7.53522 7.23224 7.07283 7.29636 6.62676 7.42323C6.37381 7.49553 6.12493 7.5883 5.88694 7.6988C5.43271 7.91025 5.01384 8.18718 4.64121 8.52413ZM12.9696 11.7874C12.3249 12.0738 11.6409 12.2184 10.9364 12.2184C9.89058 12.2184 8.88964 11.9006 8.04102 11.3003C7.82886 11.1489 7.62351 10.9784 7.43311 10.7929L7.41951 10.7792C7.4113 10.7701 7.40248 10.7615 7.39387 10.7532C7.38964 10.7491 7.38546 10.7451 7.38143 10.741C6.81292 10.1708 6.3906 9.477 6.14804 8.71924C6.10027 8.56997 6.17216 8.40951 6.31617 8.34767C6.49554 8.27064 6.6937 8.38202 6.75505 8.56735C6.98884 9.27354 7.39653 9.90879 7.95126 10.4218C8.14438 10.6005 8.35517 10.7642 8.57821 10.9061C9.28267 11.3563 10.0987 11.595 10.9364 11.595C11.3838 11.595 11.8258 11.5282 12.2501 11.3945C12.2863 11.3829 12.3075 11.3455 12.2991 11.3085C12.037 10.131 11.3119 9.1224 10.2925 8.50031C10.1776 8.43018 10.1171 8.29716 10.1424 8.16494C10.1812 7.96252 10.4005 7.84012 10.5774 7.94598C10.8553 8.11236 11.1169 8.30572 11.3593 8.52422C12.2841 9.35637 12.8662 10.4968 12.9995 11.7369L12.9999 11.7403C13.002 11.76 12.9907 11.7788 12.9723 11.786L12.9696 11.7874Z" fill="white"/>
    <defs>
        <linearGradient id="paint0_linear_1504_1406" x1="15.22" y1="1.66652" x2="-1.65303" y2="3.75124" gradientUnits="userSpaceOnUse">
            <stop offset="1" stop-color="#2E5CFF"/>
        </linearGradient>
    </defs>
</svg>
