<svg width="16" height="14" viewBox="0 0 16 14" fill="none" xmlns="http://www.w3.org/2000/svg">
    <path fill-rule="evenodd" clip-rule="evenodd" d="M6.25697 1.0991C7.02197 -0.260898 8.97897 -0.260898 9.74297 1.0991L15.323 11.0191C16.073 12.3531 15.11 13.9991 13.581 13.9991H2.41997C0.889971 13.9991 -0.0730296 12.3531 0.67697 11.0191L6.25697 1.0991ZM8.99997 11.0001C8.99997 11.2653 8.89461 11.5197 8.70708 11.7072C8.51954 11.8947 8.26519 12.0001 7.99997 12.0001C7.73475 12.0001 7.4804 11.8947 7.29286 11.7072C7.10533 11.5197 6.99997 11.2653 6.99997 11.0001C6.99997 10.7349 7.10533 10.4805 7.29286 10.293C7.4804 10.1055 7.73475 10.0001 7.99997 10.0001C8.26519 10.0001 8.51954 10.1055 8.70708 10.293C8.89461 10.4805 8.99997 10.7349 8.99997 11.0001V11.0001ZM7.99997 3.0001C7.73475 3.0001 7.4804 3.10546 7.29286 3.29299C7.10533 3.48053 6.99997 3.73489 6.99997 4.0001V7.0001C6.99997 7.26532 7.10533 7.51967 7.29286 7.70721C7.4804 7.89474 7.73475 8.0001 7.99997 8.0001C8.26519 8.0001 8.51954 7.89474 8.70708 7.70721C8.89461 7.51967 8.99997 7.26532 8.99997 7.0001V4.0001C8.99997 3.73489 8.89461 3.48053 8.70708 3.29299C8.51954 3.10546 8.26519 3.0001 7.99997 3.0001Z" fill="white"/>
</svg>
