<svg width="20" height="18" viewBox="0 0 20 18" fill="none" xmlns="http://www.w3.org/2000/svg">
    <path d="M17.5321 2.40981C15.0814 0.575954 12.7335 0.627495 12.7335 0.627495L12.4935 0.901663C15.4069 1.77571 16.7609 3.06101 16.7609 3.06101C12.5925 0.766076 7.28323 0.782543 2.94764 3.06101C2.94764 3.06101 4.35291 1.70706 7.43785 0.833014L7.26654 0.62728C7.26654 0.62728 4.93568 0.575954 2.46795 2.40959C2.46795 2.40959 0 6.84826 0 12.3154C0 12.3154 1.43971 14.7833 5.22717 14.9033C5.22717 14.9033 5.86127 14.1492 6.37539 13.498C4.19893 12.8468 3.37621 11.4929 3.37621 11.4929C4.74363 12.3485 6.12624 12.884 7.84931 13.2239C10.6526 13.8009 14.1396 13.2076 16.744 11.4929C16.744 11.4929 15.887 12.881 13.6419 13.5151C14.1561 14.1492 14.773 14.8862 14.773 14.8862C18.5605 14.7662 20 12.2983 20 12.3156C19.9998 6.84848 17.5321 2.40981 17.5321 2.40981ZM6.80375 10.7217C5.84395 10.7217 5.05566 9.88187 5.05566 8.83652C5.1258 6.33286 8.49924 6.34056 8.55184 8.83652C8.55184 9.88187 7.78045 10.7217 6.80375 10.7217ZM13.0589 10.7217C12.0991 10.7217 11.3109 9.88187 11.3109 8.83652C11.3878 6.33778 14.7191 6.33671 14.807 8.83652C14.807 9.88187 14.0359 10.7217 13.0589 10.7217Z"/>
</svg>
