<svg width="24" height="24" viewBox="0 0 18 18" fill="none" xmlns="http://www.w3.org/2000/svg">
    <path fill-rule="evenodd" clip-rule="evenodd" d="M11.5858 2.58616C11.7703 2.39514 11.991 2.24278 12.235 2.13796C12.479 2.03314 12.7415 1.97797 13.007 1.97566C13.2726 1.97336 13.536 2.02396 13.7817 2.12452C14.0275 2.22508 14.2508 2.37359 14.4386 2.56137C14.6264 2.74916 14.7749 2.97246 14.8755 3.21826C14.976 3.46405 15.0266 3.72741 15.0243 3.99297C15.022 4.25852 14.9669 4.52097 14.862 4.76497C14.7572 5.00898 14.6049 5.22967 14.4138 5.41416L11.4138 8.41416C11.0388 8.78911 10.5302 8.99974 9.99984 8.99974C9.46951 8.99974 8.96089 8.78911 8.58584 8.41416C8.39723 8.23201 8.14463 8.13121 7.88244 8.13349C7.62024 8.13577 7.36943 8.24094 7.18402 8.42635C6.99861 8.61175 6.89344 8.86257 6.89116 9.12476C6.88888 9.38696 6.98968 9.63956 7.17184 9.82816C7.92195 10.578 8.93918 10.9993 9.99984 10.9993C11.0605 10.9993 12.0777 10.578 12.8278 9.82816L15.8278 6.82816C16.5565 6.07376 16.9596 5.06335 16.9505 4.01456C16.9414 2.96577 16.5207 1.96252 15.7791 1.22089C15.0375 0.479257 14.0342 0.0585813 12.9854 0.0494676C11.9367 0.0403539 10.9262 0.443531 10.1718 1.17216L8.67184 2.67216C8.57633 2.76441 8.50014 2.87476 8.44774 2.99676C8.39533 3.11876 8.36774 3.24998 8.36659 3.38276C8.36543 3.51554 8.39073 3.64722 8.44101 3.77012C8.4913 3.89301 8.56555 4.00467 8.65944 4.09856C8.75333 4.19245 8.86499 4.2667 8.98788 4.31699C9.11078 4.36727 9.24246 4.39257 9.37524 4.39141C9.50802 4.39026 9.63924 4.36267 9.76124 4.31027C9.88324 4.25786 9.99359 4.18167 10.0858 4.08616L11.5858 2.58616ZM6.58584 7.58616C6.96089 7.21122 7.46951 7.00059 7.99984 7.00059C8.53016 7.00059 9.03878 7.21122 9.41384 7.58616C9.50608 7.68167 9.61643 7.75786 9.73843 7.81027C9.86044 7.86267 9.99166 7.89026 10.1244 7.89141C10.2572 7.89257 10.3889 7.86727 10.5118 7.81699C10.6347 7.76671 10.7463 7.69245 10.8402 7.59856C10.9341 7.50467 11.0084 7.39301 11.0587 7.27012C11.1089 7.14722 11.1342 7.01554 11.1331 6.88276C11.1319 6.74998 11.1043 6.61876 11.0519 6.49676C10.9995 6.37476 10.9233 6.26441 10.8278 6.17216C10.0777 5.42228 9.06049 5.00102 7.99984 5.00102C6.93918 5.00102 5.92195 5.42228 5.17184 6.17216L2.17184 9.17216C1.7898 9.54115 1.48507 9.98253 1.27543 10.4705C1.06579 10.9586 0.95545 11.4834 0.950835 12.0146C0.946219 12.5457 1.04743 13.0724 1.24855 13.564C1.44967 14.0556 1.74669 14.5022 2.12226 14.8777C2.49783 15.2533 2.94444 15.5503 3.43602 15.7515C3.92761 15.9526 4.45432 16.0538 4.98544 16.0492C5.51656 16.0446 6.04144 15.9342 6.52945 15.7246C7.01747 15.5149 7.45885 15.2102 7.82784 14.8282L9.32784 13.3282C9.42335 13.2359 9.49953 13.1256 9.55194 13.0036C9.60435 12.8816 9.63193 12.7503 9.63309 12.6176C9.63424 12.4848 9.60894 12.3531 9.55866 12.2302C9.50838 12.1073 9.43412 11.9957 9.34023 11.9018C9.24634 11.8079 9.13469 11.7336 9.01179 11.6833C8.88889 11.6331 8.75721 11.6078 8.62443 11.6089C8.49166 11.6101 8.36044 11.6377 8.23843 11.6901C8.11643 11.7425 8.00608 11.8187 7.91384 11.9142L6.41384 13.4142C6.22934 13.6052 6.00865 13.7575 5.76465 13.8624C5.52064 13.9672 5.2582 14.0224 4.99264 14.0247C4.72708 14.027 4.46372 13.9764 4.21793 13.8758C3.97214 13.7752 3.74883 13.6267 3.56105 13.439C3.37326 13.2512 3.22476 13.0279 3.12419 12.7821C3.02363 12.5363 2.97303 12.2729 2.97534 12.0074C2.97764 11.7418 3.03282 11.4794 3.13763 11.2354C3.24245 10.9913 3.39482 10.7707 3.58584 10.5862L6.58584 7.58616Z" fill="white"/>
</svg>
