<svg width="20" height="17" viewBox="0 0 20 17" fill="none" xmlns="http://www.w3.org/2000/svg">
<path d="M18.4042 2.43713L20 0.910461V0.576294H14.4717L10.5317 10.383L6.04917 0.576294H0.2525V0.910461L2.11667 3.15463C2.29833 3.32046 2.39333 3.56296 2.36917 3.80713V12.6263C2.42667 12.9438 2.32333 13.2705 2.1 13.5013L0 16.0463V16.3763H5.95417V16.0421L3.85417 13.5013C3.62667 13.2696 3.51917 12.9488 3.565 12.6263V4.99796L8.79167 16.3805H9.39917L13.8933 4.99796V14.0655C13.8933 14.3046 13.8933 14.3538 13.7367 14.5105L12.12 16.0746V16.4096H19.9633V16.0755L18.405 14.5496C18.2683 14.4463 18.1975 14.273 18.2267 14.1046V2.88213C18.1975 2.71296 18.2675 2.53963 18.4042 2.43713Z"/>
</svg>
