<svg width="20" height="18" viewBox="0 0 20 18" fill="none" xmlns="http://www.w3.org/2000/svg">
    <path d="M19.9996 2.79884C19.2559 3.12509 18.4634 3.34134 17.6371 3.44634C18.4871 2.93884 19.1359 2.14134 19.4409 1.18009C18.6484 1.65259 17.7734 1.98634 16.8409 2.17259C16.0884 1.37134 15.0159 0.875092 13.8459 0.875092C11.5759 0.875092 9.74838 2.71759 9.74838 4.97634C9.74838 5.30134 9.77588 5.61384 9.84338 5.91134C6.43463 5.74509 3.41838 4.11134 1.39213 1.62259C1.03838 2.23634 0.830884 2.93884 0.830884 3.69509C0.830884 5.11509 1.56213 6.37384 2.65213 7.10259C1.99338 7.09009 1.34713 6.89884 0.799634 6.59759C0.799634 6.61009 0.799634 6.62634 0.799634 6.64259C0.799634 8.63509 2.22088 10.2901 4.08463 10.6713C3.75088 10.7626 3.38713 10.8063 3.00963 10.8063C2.74713 10.8063 2.48213 10.7913 2.23338 10.7363C2.76463 12.3601 4.27213 13.5538 6.06463 13.5926C4.66963 14.6838 2.89838 15.3413 0.980884 15.3413C0.644634 15.3413 0.322134 15.3263 -0.000366211 15.2851C1.81588 16.4563 3.96838 17.1251 6.28963 17.1251C13.8346 17.1251 17.9596 10.8751 17.9596 5.45759C17.9596 5.27634 17.9534 5.10134 17.9446 4.92759C18.7584 4.35009 19.4421 3.62884 19.9996 2.79884Z"/>
</svg>

