<svg width="20" height="20" viewBox="0 0 20 20" fill="none" xmlns="http://www.w3.org/2000/svg">
    <path d="M19.8489 8.26656C19.82 8.22066 19.7885 8.16 19.7584 8.07148C19.5633 8.13508 19.5567 8.14033 19.3262 8.17869L19.3157 8.19246C19.2239 8.32328 19.3203 8.26852 19.1593 8.40459C18.9675 8.56557 18.8426 8.78623 18.6285 8.91705C18.6023 9.14557 18.6475 9.19672 18.5898 9.4682C18.5669 9.5682 18.4551 9.83738 18.3239 9.81705C18.282 9.80918 18.1059 9.37311 18.0646 9.25279C17.9938 9.04787 17.9141 8.89607 17.863 8.66033C17.8341 8.53475 17.8144 8.29377 17.7856 8.20918C17.6482 8.22951 17.6548 8.31705 17.523 8.22492C17.4298 8.15738 17.4718 8.11705 17.4203 8.01672C17.3118 7.91475 17.1997 7.8118 17.0879 7.70918C17.0013 7.68164 16.6682 7.73016 16.5275 7.71443C16.2741 7.69148 16.2525 7.70656 16.102 7.50426C15.8354 7.51738 15.8584 7.61672 15.5987 7.39443C15.4292 7.25049 15.4613 7.02 15.2151 7.15016C15.2052 7.36098 15.3082 7.40689 15.4003 7.50426C15.4679 7.57902 15.5508 7.62984 15.5862 7.72951C15.5895 7.73279 15.6052 7.82689 15.6085 7.84C15.8489 7.85574 15.9062 7.74 16.0374 7.64295C16.1656 7.76328 16.0407 7.78361 16.2266 7.87869C16.3738 7.95344 16.3449 7.90951 16.4413 8.02984C16.4892 8.19148 16.1115 8.62951 15.9862 8.70918C15.8905 8.77082 15.839 8.73475 15.7525 8.80623C15.6249 8.9141 15.7689 8.89869 15.5449 8.98098C15.3046 9.0682 15.0669 9.25279 14.8144 9.26787C14.76 9.11934 14.7059 8.9682 14.6515 8.81672C14.4911 8.30164 14.4977 8.50131 14.3348 8.23475C14.2574 8.11967 14.2895 8.04492 14.2387 7.9423C14.2033 7.86557 14.1489 7.83246 14.1007 7.73738C14.0272 7.59148 13.941 7.36361 13.7715 7.38656C13.7361 7.50164 13.9279 7.89115 13.9764 7.98623C14.0243 8.08131 14.1007 8.1223 14.1236 8.25803C14.1557 8.44525 14.117 8.42229 14.2193 8.54787C14.4341 8.80656 14.2102 8.76066 14.5426 9.0141C14.7928 9.20393 14.7285 9.26098 14.8344 9.5141C14.9974 9.56066 15.4839 9.34262 15.5669 9.40689C15.6662 9.58361 15.4525 9.8659 15.3974 10.0197C15.218 10.5348 14.9046 10.5269 14.6643 10.9216C14.5334 11.1351 14.4725 11.1633 14.3508 11.419C14.2134 11.7089 14.6292 12.5115 14.3797 12.8475C14.3252 12.9243 14.1492 12.9705 13.9285 13.2036C13.6941 13.4577 13.9344 13.4138 13.8446 13.8374C13.7744 13.9341 13.6882 13.9393 13.601 14.0089C13.5695 14.1089 13.5951 14.1882 13.5407 14.3111C13.483 14.4597 13.4731 14.3807 13.3895 14.501C13.3292 14.5961 13.3357 14.6338 13.2652 14.7216C13.2043 14.801 13.1721 14.8236 13.1148 14.8754C12.8357 15.1321 12.2377 15.1393 12.1866 15.1033C12.0452 14.983 12.1413 14.9521 12.1066 14.7833C12.0718 14.6341 11.9934 14.5095 11.9272 14.3951L11.9207 14.3833C11.8885 14.3269 11.8597 14.2728 11.8433 14.2216C11.7282 13.8577 11.7698 13.5807 11.5682 13.2115C11.3148 12.7341 11.7089 12.4856 11.6925 12.2164C11.6859 12.1449 11.6603 12.1013 11.6538 12.0449C11.6059 11.7479 11.577 11.4807 11.3787 11.2475C11.1607 10.9934 11.1895 11.0833 11.2603 10.6656C11.3502 10.1862 11.1452 10.3089 10.857 10.2964C10.7157 9.86033 10.4407 10.0731 10.1652 10.2013C9.99246 10.2807 9.9282 10.1784 9.73311 10.2066C9.29705 10.2656 9.64 10.4528 9.0577 9.99115C8.8141 9.79869 8.9777 9.89607 8.83311 9.65541C8.78525 9.5682 8.63803 9.45246 8.57049 9.36557C8.34984 9.08852 8.61246 8.80918 8.57377 8.4918C8.50689 7.90197 8.41082 8.41443 8.74066 7.70164C8.91344 7.32262 9.17607 7.32 9.24328 7.15049C9.30098 6.99934 9.26229 6.8918 9.37082 6.75311C9.46688 6.64066 9.60459 6.66328 9.65869 6.48656C9.73607 6.26852 9.58852 6.24033 9.4282 6.23508C9.36131 6.00721 9.36131 6.06361 9.41246 5.85344C9.44131 5.73508 9.41574 5.67869 9.44131 5.56098C9.50557 5.26656 10.0082 5.55836 10.1521 5.43803C10.219 5.31246 10.2289 5.18918 10.1521 5.06885C10.0715 4.94852 9.96623 4.96361 9.9118 4.8482C10.0334 4.76623 9.94393 4.83836 10.0492 4.81475C10.1741 4.78656 10.1577 4.75049 10.3052 4.72295C10.4367 4.69672 10.5207 4.57639 10.6482 4.49443C10.8308 4.37672 10.7439 4.27115 10.9649 4.23508C11.3203 4.17344 11.0898 4.18393 11.1285 3.85344C11.1823 3.83246 11.2338 3.80951 11.2849 3.78656C11.3967 3.93246 11.2561 3.87377 11.3908 3.97115C11.4256 3.95082 11.4675 3.92984 11.5059 3.90951C11.4862 3.75049 11.4128 3.78131 11.3646 3.58426C11.1885 3.61246 11.1249 3.76098 10.9836 3.70721C10.8462 3.65541 10.8397 3.45836 10.8462 3.2941C10.8974 3.17115 11.1531 3.10426 11.2528 3.07344C11.4131 3.01967 11.3902 2.9118 11.5384 2.7659C11.7302 2.57344 11.5895 2.76852 11.6823 2.51967C11.8938 2.5118 11.7941 2.50459 11.9193 2.44033L11.9252 2.43771L11.9384 2.43246C12.0118 2.39902 12.1079 2.39115 12.2043 2.35836C12.5564 2.24066 12.7003 2.29934 12.9564 2.40426C13.1548 2.48623 13.7538 2.48885 13.799 2.74C13.6544 2.89115 13.5167 2.78131 13.3089 2.79377C13.3475 2.98885 13.3633 2.98885 13.5393 3.04262C13.5682 2.95016 13.5269 2.98623 13.5748 2.92754C13.6325 2.94 13.6898 2.95049 13.7475 2.96098C13.8059 2.76328 13.8725 2.79148 14.0682 2.76852C14.0354 2.63246 14.0007 2.67115 14.0741 2.56361C14.2764 2.58393 14.1128 2.56623 14.2115 2.72787C14.3528 2.70951 14.4905 2.55311 14.6856 2.53279C14.8072 2.51967 14.8013 2.56623 14.9734 2.54787C15.1148 2.53279 15.1082 2.48164 15.2492 2.54066C15.3003 2.44557 15.2492 2.4482 15.3741 2.42492C15.5659 2.39148 15.7328 2.50951 15.918 2.53541C15.7807 2.3659 15.6495 2.39934 15.8193 2.11705C16.0334 2.07377 16.0531 2.10459 16.1459 2.26623C16.1984 2.23607 16.2207 2.20656 16.2466 2.19148C16.2321 2.17967 16.2177 2.16787 16.2026 2.15607C16.1226 2.09246 16.0423 2.03049 15.9597 1.96951C15.9439 1.9577 15.9282 1.94656 15.9118 1.93475C15.8436 1.88426 15.7744 1.83475 15.7043 1.78623C15.682 1.77115 15.6603 1.75541 15.638 1.74033C15.5534 1.68262 15.4685 1.6259 15.3826 1.57082C15.3748 1.56557 15.3662 1.56098 15.3584 1.55574C15.2797 1.5059 15.2 1.45705 15.1193 1.40918C15.0944 1.3941 15.0695 1.37902 15.0446 1.36459C14.9679 1.32 14.8908 1.27541 14.8134 1.23311C14.7997 1.2259 14.7866 1.21803 14.7734 1.21082C14.6849 1.1623 14.5954 1.11574 14.5049 1.07016C14.4787 1.05705 14.4525 1.04459 14.4269 1.03148C14.3541 0.996066 14.2816 0.960656 14.2082 0.926885C14.1852 0.916393 14.1623 0.905246 14.1387 0.894754C14.0475 0.852787 13.9554 0.812787 13.8623 0.77377C13.838 0.763934 13.8131 0.754098 13.7889 0.743607C13.7148 0.713443 13.641 0.683934 13.5662 0.655738C13.5374 0.64459 13.5092 0.633443 13.481 0.622951C13.3862 0.587541 13.2911 0.553443 13.1948 0.521639C13.1764 0.515738 13.158 0.509836 13.1397 0.503934C13.0584 0.477049 12.9774 0.45082 12.8948 0.425902C12.8639 0.416721 12.8325 0.407541 12.801 0.398361C12.7144 0.372787 12.6282 0.348525 12.5403 0.325574C12.5259 0.322295 12.5121 0.317705 12.4977 0.314426C12.399 0.288852 12.2993 0.265246 12.2 0.242951C12.1685 0.235738 12.1364 0.22918 12.1046 0.221967C12.0252 0.204918 11.9462 0.18918 11.8662 0.174098C11.84 0.168852 11.8138 0.163607 11.7875 0.159016C11.6875 0.140656 11.5859 0.124262 11.4846 0.10918C11.4544 0.10459 11.4236 0.100656 11.3934 0.0960656C11.3141 0.084918 11.2357 0.075082 11.1557 0.0659016C11.1243 0.0619672 11.0921 0.0580328 11.06 0.0547541C10.961 0.0452459 10.8584 0.0360656 10.7541 0.0281967C10.7292 0.0262295 10.7043 0.024918 10.6793 0.0236066C10.5951 0.0177049 10.5105 0.0131147 10.4262 0.00983606C10.3915 0.00786884 10.3574 0.00655738 10.323 0.00590164C10.2236 0.00262295 10.1239 0.000655738 10.0246 0H10C7.54262 0 5.29311 0.886885 3.55279 2.35738L3.55738 2.36656C3.57049 2.38754 3.57967 2.38754 3.59279 2.44131C3.4318 2.48066 3.43115 2.50754 3.37016 2.51541C3.33344 2.54885 3.29607 2.58164 3.25967 2.61475C3.37607 2.65475 3.52951 2.62787 3.64393 2.62328C3.6859 2.54656 3.71148 2.47934 3.78459 2.4518C3.81344 2.44131 3.84885 2.43869 3.89705 2.44131C3.90295 2.47934 3.91279 2.51803 3.92262 2.55639C3.92262 2.55902 3.92656 2.57541 3.92656 2.57934C3.92984 2.57672 3.93246 2.59574 3.93508 2.60295C4.13738 2.48525 3.96721 2.48262 4.07574 2.26984C3.90623 2.23639 3.92918 2.25672 3.82295 2.14885C3.92557 2.03639 4.12393 1.9977 4.27148 2.0082C4.26164 2.11082 4.21377 2.1082 4.25246 2.19541C4.36754 2.12328 4.44754 1.93148 4.63344 1.96689C4.6682 1.99246 4.71016 2.01607 4.74852 2.03902C4.65213 2.12885 4.5082 2.1341 4.38328 2.18492C4.32885 2.74131 4.55934 2.27475 4.48262 2.65705C4.62 2.64656 4.75508 2.54721 4.8059 2.44426C4.75508 2.37705 4.68131 2.37705 4.63934 2.29771C4.67213 2.19508 4.74066 2.11705 4.83836 2.07115C4.90393 2.03967 4.98295 2.02262 5.07213 2.02262C6.09016 2.03049 5.60623 2.07705 5.92066 2.22033C5.99148 2.25115 6.11574 2.26689 6.1577 2.3282C6.22197 2.42557 6.16098 2.51738 6.26295 2.59475C6.35279 2.66164 6.36557 2.59213 6.48426 2.74066C6.45869 2.82525 6.3977 2.91279 6.27279 2.91541C6.1 2.91803 6.20262 2.79967 6.01672 2.8177C6.02 2.9918 6.19279 3.05869 6.03246 3.15344C5.8918 3.23803 5.98131 3.12262 5.87607 3.18164C5.87279 3.18426 5.86295 3.18951 5.85967 3.19213C5.85311 3.19672 5.84721 3.20459 5.84328 3.20984C5.82426 3.23016 5.80852 3.24852 5.79213 3.26623C5.53607 3.19672 5.58459 3.2282 5.43082 3.05869C5.37311 2.99443 5.36328 2.97869 5.26066 2.98721C5.19705 2.98918 5.1141 3.01738 5.05246 2.96098C5.17738 2.80459 5.23836 2.95639 5.42098 2.86361C5.45311 2.84852 5.65475 2.69213 5.68688 2.65607C5.63246 2.53311 5.68033 2.63508 5.60033 2.55607C5.42098 2.3741 5.36918 2.42066 5.12623 2.42066C5.01246 2.55148 4.92721 2.71311 4.80295 2.78459C4.7282 2.82787 4.63934 2.83771 4.52131 2.78721C4.57574 3.00787 4.71639 2.83836 4.72885 3.10525C4.63639 3.08689 4.5882 3.04033 4.4918 3.07443C4.28689 3.15115 4.46951 3.14328 4.4859 3.18426C4.4859 3.18689 4.58131 3.19672 4.4859 3.23279C4.38 3.27148 4.46951 3.21246 4.26459 3.09213C4.29344 3.04098 4.3223 2.98754 4.35115 2.93311C4.18492 2.98426 3.97672 3.06656 3.78164 3.16164C3.56033 3.27148 3.35213 3.39738 3.22787 3.51246C3.22459 3.70492 3.25934 3.57672 3.27902 3.80492C3.57672 3.82262 3.48066 3.91213 3.77836 3.99672C3.83607 4.01246 3.90918 4.02754 3.99967 4.04328C3.99967 4.18656 3.87148 4.29475 3.96033 4.44328C4.16852 4.58918 4.17508 4.30459 4.22689 4.12328C4.93115 3.97607 4.59148 3.76852 4.77344 3.38098C4.80098 3.32328 4.83967 3.26131 4.89574 3.19508C4.95016 3.19705 5.17082 3.22066 5.21902 3.23049C5.37869 3.25869 5.29246 3.29738 5.46525 3.37377C5.46197 3.51246 5.3918 3.6918 5.59672 3.65869C5.75311 3.63115 5.71836 3.50754 5.91016 3.47672C5.99672 3.67967 5.97443 3.76689 6.01279 4.01016C6.47377 4.18951 6.26885 4.33541 6.17902 4.67148C6.23672 4.69967 6.29738 4.7259 6.35836 4.75148C6.35508 4.84885 6.3518 4.94328 6.34852 5.03902C6.33934 5.03902 5.85574 4.93377 5.82361 4.92328C5.8977 4.71311 6.0318 4.71049 6.11803 4.49508C5.94525 4.5259 5.9577 4.57967 5.83311 4.61803C5.72131 4.65148 5.63475 4.62852 5.51705 4.64361C5.52033 4.65279 5.52361 4.66984 5.52557 4.7C5.53213 4.76689 5.56426 4.70328 5.51902 4.77475C5.35934 4.7 5.41377 4.5259 5.11574 4.68754C5.18328 4.71836 5.24984 4.74656 5.32066 4.77475C5.31148 4.9718 5.29508 4.82328 5.25311 4.9541C5.15115 5.28984 5.53213 5.0823 5.63148 5.06459C5.60525 5.24131 5.49672 5.24131 5.34262 5.28984C5.17311 5.34098 5.12197 5.41016 4.98721 5.44164C4.98721 5.23082 4.95574 5.4082 5.0482 5.26164C4.9141 5.27475 4.81443 5.33639 4.68689 5.38984L4.67377 5.39508C4.50951 5.46197 4.48459 5.4718 4.46557 5.68197C4.32492 5.7259 4.16197 5.77508 4.0623 5.87705C3.96295 5.97213 3.86393 6.06688 3.76787 6.15934C3.75803 6.16721 3.75148 6.17443 3.74557 6.17967C3.78098 6.44426 3.74557 6.44885 3.58525 6.55148C3.45049 6.63869 3.4059 6.63672 3.28098 6.74656C2.88098 7.10525 3.07344 6.93836 3.09508 7.55639C3.0118 7.53082 2.93213 7.50262 2.85541 7.47443C2.79443 7.06459 2.8777 7.2 2.54787 7.10525C2.19246 7.00328 2.24098 7.17738 2.09344 7.20787C1.92984 7.24393 1.84984 7.05934 1.61311 7.21311C1.4823 7.30295 1.35705 7.36164 1.32492 7.52066C1.28623 7.71311 1.2 7.85377 1.21311 8.06656C1.23541 8.64328 1.76033 8.67672 1.89443 8.40754C1.98426 8.2282 1.96197 8.13049 2.25311 8.17705C2.28197 8.33082 2.23738 8.44361 2.19869 8.56131C2.17311 8.63082 2.1023 8.75574 2.13771 8.85115C2.3459 8.93574 2.35246 8.77639 2.62721 8.94033C2.64689 9.21541 2.50295 9.52295 2.71443 9.68131C2.87738 9.80164 2.88721 9.69443 3.03115 9.66885C3.19148 9.64066 3.16197 9.74033 3.30951 9.76393C3.39344 9.66131 3.35803 9.72525 3.41213 9.59967C3.5082 9.38164 3.53377 9.48459 3.76098 9.35082C3.78328 9.33836 3.80229 9.32525 3.82525 9.31016C3.85082 9.36393 3.87967 9.41475 3.90525 9.46656C4.07148 9.26885 4.09115 9.46131 4.28295 9.51508C4.36557 9.53803 4.42426 9.5459 4.47016 9.54656C4.60951 9.54852 4.62393 9.48033 4.81443 9.54852C4.83672 9.55902 4.86557 9.56623 4.8918 9.5741C4.89508 9.5741 4.90426 9.57934 4.90426 9.58459C4.90754 9.58721 4.91738 9.59443 4.92 9.59705C4.95213 9.63311 4.95541 9.66918 4.98098 9.70754C5.11246 9.83246 5.24426 9.95902 5.3718 10.082C5.62459 10.1813 5.62459 9.9941 5.91311 10.2738C6.03475 10.3889 5.98 10.3869 6.04721 10.5357C6.05705 10.5587 6.07607 10.5816 6.08918 10.6098C6.11475 10.6793 6.14361 10.7459 6.17246 10.8128C6.30393 10.9843 6.48262 10.877 6.66525 11.0538C6.77049 11.1564 6.69082 11.1252 6.92459 11.1662C7.28656 11.2252 7.1459 11.1925 7.42131 11.4C7.52656 11.4767 7.55213 11.4334 7.6518 11.4993C7.78918 11.6918 7.75377 11.9 7.63869 12.0689C7.28328 12.5866 7.40492 12.5023 7.38918 12.9128C7.37607 13.1485 7.30918 13.6354 7.0882 13.6944C6.28426 13.9203 6.7518 14.0767 6.54098 14.4734C6.48 14.5866 6.43508 14.6148 6.39639 14.7046C6.23672 15.079 6.34852 15.2046 5.87475 15.1203C5.92 15.1997 5.89115 15.1459 5.93574 15.217C6.07639 15.4351 6.09934 15.5993 5.81082 15.6531C5.57115 15.699 5.67344 15.6531 5.65115 15.9197C5.55803 15.9584 5.51639 15.9197 5.45607 15.9813C5.53934 16.1351 5.46197 16.0069 5.60328 16.0944C5.57705 16.179 5.55803 16.2607 5.53574 16.3426C5.48131 16.543 5.46492 16.3584 5.4459 16.5915C5.52918 16.6302 5.58656 16.6223 5.66066 16.7223C5.65082 16.7997 5.5741 17.0098 5.55148 17.1302C5.66984 17.3069 5.76623 17.4967 6.01967 17.5151C6.01639 17.663 6.05115 17.6479 5.92328 17.6787C5.81475 17.7043 5.58426 17.602 5.48721 17.5505C5.32098 17.4607 5.16721 17.343 5.05508 17.1741C4.99148 17.0784 5.01705 17.1249 4.94984 17.0354C4.8282 16.879 4.87639 16.8069 4.84131 16.7023C4.82164 16.6407 4.72295 16.5741 4.76393 16.3738C4.77377 16.3174 4.86328 16.0485 4.75475 16.0948C4.64557 16.138 4.83803 16.1203 4.68721 16.1915C4.6518 16.0948 4.62295 15.9505 4.60393 15.8302C4.56525 15.6279 4.51738 15.62 4.49475 15.497C4.44689 15.2121 4.56885 15.1816 4.43377 14.7069C4.34525 14.3934 4.38131 13.6502 4.28787 13.2692C4.27279 13.2082 4.25443 13.1567 4.23213 13.1174C4.14557 12.9741 3.93443 12.9072 3.76459 12.7921C3.75541 12.7895 3.74885 12.7869 3.74557 12.7816C3.5118 12.618 3.29049 11.9744 3.10525 11.7334C3.01869 11.6177 2.96393 11.6685 2.9259 11.4872C2.88393 11.3203 2.9482 11.3485 3.00262 11.2095C2.7177 10.6872 3.37115 10.6944 3.23639 10.0666C3.20754 9.95082 3.12459 9.78951 3.05443 9.73869C2.91967 9.7977 2.98361 9.83049 2.91311 9.94361C2.80459 9.88197 2.69574 9.82066 2.58984 9.75902C2.26 9.44098 2.43607 9.6718 2.34361 9.46393C2.14459 9.02852 1.95607 9.27213 1.71902 9.05672C1.61311 8.96688 1.5941 8.82557 1.41803 8.8518C1.15213 8.88721 1.29967 8.92852 1.02459 8.8C0.790164 8.68951 0.547213 8.56164 0.383607 8.41311C0.375082 8.10164 0.470164 8.13148 0.233115 7.84426C0.0806557 8.53836 0 9.25967 0 10C0 10.1144 0.00262294 10.2285 0.00655737 10.3423C0.00721311 10.3666 0.00786885 10.3915 0.00918033 10.4157C0.0137705 10.5243 0.0190164 10.6325 0.0268853 10.7403C0.027541 10.7449 0.027541 10.7489 0.0281967 10.7534C0.0367213 10.8666 0.0472131 10.9793 0.0596721 11.0918C0.0616394 11.1141 0.0642623 11.137 0.0668852 11.16C0.0786885 11.2607 0.0918033 11.361 0.10623 11.4603C0.108197 11.4721 0.109508 11.4839 0.111475 11.4957C0.127869 11.6062 0.146885 11.7157 0.166557 11.8249L0.178361 11.8859C0.196721 11.9816 0.216393 12.0777 0.237377 12.1728C0.241311 12.1885 0.243934 12.2043 0.247869 12.22C0.272131 12.3279 0.298361 12.4354 0.326557 12.542C0.331148 12.5577 0.335082 12.5741 0.339672 12.5898C0.365246 12.6843 0.391475 12.7784 0.419672 12.8715C0.424918 12.8892 0.429508 12.9062 0.434754 12.9239C0.467541 13.0292 0.500984 13.1348 0.536721 13.2387C0.54 13.2485 0.543934 13.259 0.547213 13.2695C0.580656 13.3646 0.614754 13.4587 0.650492 13.5525C0.657049 13.5702 0.663607 13.5879 0.670164 13.6049C0.710164 13.7089 0.752131 13.8118 0.795082 13.9138C0.795738 13.9151 0.796393 13.9164 0.797049 13.9184C0.839016 14.017 0.883606 14.1154 0.928525 14.2121C0.936393 14.2285 0.943607 14.2456 0.951475 14.262C1.0459 14.461 1.1459 14.6567 1.25246 14.8485C1.26033 14.863 1.26885 14.8774 1.27672 14.8918C1.38459 15.0849 1.49934 15.2734 1.61967 15.458C1.62754 15.4698 1.63541 15.4816 1.64328 15.4934C1.76557 15.68 1.8941 15.8613 2.02885 16.0387C2.03541 16.0472 2.04197 16.0557 2.04852 16.0643C2.11475 16.1508 2.18131 16.2364 2.25016 16.3203C2.25213 16.3223 2.25344 16.3249 2.25541 16.3269C2.3282 16.4154 2.40131 16.5023 2.47672 16.5882C2.48131 16.5928 2.48525 16.5974 2.48918 16.602C2.56197 16.6846 2.63508 16.7649 2.70984 16.8449C2.71377 16.8489 2.7177 16.8534 2.72098 16.8574C2.87738 17.023 3.03967 17.1833 3.20721 17.3387C3.2118 17.3433 3.21705 17.3479 3.22164 17.3525C3.38918 17.5069 3.56131 17.6554 3.73869 17.7984C3.74459 17.803 3.74984 17.8075 3.75574 17.8121C3.93311 17.9541 4.11574 18.0905 4.30295 18.22C4.30885 18.2246 4.31475 18.2285 4.32066 18.2325C4.50852 18.362 4.70098 18.4859 4.89803 18.603C4.90328 18.6062 4.90918 18.6095 4.91443 18.6128C5.11213 18.7298 5.31443 18.8407 5.52131 18.9439C5.5259 18.9459 5.52984 18.9485 5.53443 18.9505C6.87869 19.6216 8.39475 20 10 20C15.523 20 20 15.523 20 10C20 9.40885 19.9482 8.82951 19.8489 8.26656ZM10.0987 3.62525C10.1243 3.6823 10.1498 3.73836 10.1787 3.79475C10.2174 3.95377 10.0921 3.82295 10.2174 4.01279C10.3161 4.13049 10.4125 4.24852 10.5085 4.36623C10.4475 4.54295 10.4508 4.55869 10.278 4.57377C10.1564 4.58426 10.0187 4.6177 9.9259 4.61246C9.96131 4.38459 9.89377 4.50262 9.9482 4.37148C10.0092 4.21508 10.019 4.33279 10.0725 4.18164C9.9541 4.00492 9.82951 4.12525 9.83541 3.76656C9.9482 3.66656 9.9318 3.6823 10.0987 3.62525ZM15.3593 12.8705C15.3082 13.0118 15.2633 13.1833 15.2154 13.3348C15.1511 13.5475 15.0007 14.2269 14.7226 13.958C14.6295 13.8702 14.6328 13.5757 14.6931 13.458C14.8633 13.14 14.7095 13.2144 14.7672 12.9711C14.8118 12.7761 14.9656 12.8246 15.0807 12.7197C15.1859 12.6272 15.2056 12.463 15.3466 12.3918C15.4836 12.5859 15.4105 12.7193 15.3593 12.8705ZM19.8351 8.18787C19.8397 8.2141 19.8443 8.24033 19.8489 8.26656C19.8495 8.26721 19.8495 8.26787 19.8502 8.26852C19.8456 8.24164 19.8403 8.21475 19.8351 8.18787Z"/>
</svg>
